<svg xmlns="http://www.w3.org/2000/svg" style="display:none">

  <symbol id="icon-fb" viewBox="0 0 44 44">
   <path d="M13.5623 22.641H17.3837V38.4355C17.3837 38.7473 17.6353 39 17.9459 39H24.4252C24.7358 39 24.9875 38.7473 24.9875 38.4355V22.7154H29.3805C29.6661 22.7154 29.9065 22.5002 29.9391 22.2154L30.6063 16.4006C30.6246 16.2406 30.5741 16.0804 30.4675 15.9604C30.3608 15.8403 30.2081 15.7715 30.0478 15.7715H24.9877V12.1265C24.9877 11.0278 25.577 10.4706 26.7393 10.4706C26.905 10.4706 30.0478 10.4706 30.0478 10.4706C30.3584 10.4706 30.6101 10.2178 30.6101 9.90608V4.56869C30.6101 4.25685 30.3584 4.00418 30.0478 4.00418H25.4883C25.4561 4.0026 25.3847 4 25.2794 4C24.4883 4 21.7384 4.15592 19.5662 6.16221C17.1594 8.3855 17.494 11.0475 17.5739 11.5091V15.7714H13.5623C13.2517 15.7714 13 16.0241 13 16.3359V22.0764C13 22.3882 13.2517 22.641 13.5623 22.641Z" fill="currentColor"/>
  </symbol>

  <symbol id="icon-inst" viewBox="0 0 44 44">
    <path d="M9.33182 4.56592H34.4071C36.7894 4.56592 38.7369 6.52185 38.7369 8.9136V34.0885C38.7369 36.4796 36.7894 38.4342 34.4071 38.4342H9.33182C6.94954 38.4342 5 36.4795 5 34.0885V8.9136C5 6.52185 6.94954 4.56592 9.33182 4.56592ZM29.5769 8.32751C28.7404 8.32751 28.0582 9.01521 28.0582 9.85453V13.5029C28.0582 14.3425 28.7404 15.0287 29.5769 15.0287H33.3895C34.2246 15.0287 34.9083 14.3425 34.9083 13.5029V9.85453C34.9083 9.01521 34.2246 8.32751 33.3895 8.32751H29.5769ZM34.9228 18.8884H31.9544C32.2359 19.8114 32.3885 20.7847 32.3885 21.7966C32.3885 27.4285 27.6917 31.9963 21.9002 31.9963C16.1101 31.9963 11.4132 27.4285 11.4132 21.7966C11.4132 20.7847 11.5672 19.8114 11.8474 18.8884H8.75042V33.1968C8.75042 33.9378 9.35307 34.5406 10.0904 34.5406H33.5834C34.3214 34.5406 34.9228 33.9378 34.9228 33.1968V18.8884ZM21.9003 14.8363C18.16 14.8363 15.1259 17.7862 15.1259 21.4285C15.1259 25.067 18.16 28.0192 21.9003 28.0192C25.6426 28.0192 28.6768 25.067 28.6768 21.4285C28.6768 17.7861 25.6426 14.8363 21.9003 14.8363Z" fill="currentColor"/>
  </symbol>

  <symbol id="icon-twitter" viewBox="0 0 44 44">
    <path d="M39.0715 10.4794C38.5238 10.7232 37.9607 10.929 37.3854 11.0961C38.0666 10.3228 38.5859 9.41275 38.9029 8.41695C38.974 8.19374 38.9003 7.94942 38.7176 7.80343C38.535 7.65733 38.2815 7.63983 38.0805 7.7594C36.8587 8.48695 35.5404 9.0098 34.1582 9.31554C32.7659 7.94964 30.8749 7.1723 28.9199 7.1723C24.7933 7.1723 21.4361 10.5428 21.4361 14.6857C21.4361 15.012 21.4566 15.3364 21.4974 15.6564C16.3767 15.205 11.6161 12.6781 8.34695 8.65212C8.23044 8.50862 8.05096 8.43129 7.86721 8.44608C7.68334 8.46053 7.51814 8.56462 7.42526 8.72461C6.76221 9.86685 6.41169 11.1733 6.41169 12.5025C6.41169 14.3129 7.0555 16.0306 8.19277 17.3728C7.84697 17.2525 7.5114 17.1023 7.19112 16.9238C7.01918 16.8277 6.80933 16.8291 6.63851 16.9275C6.46758 17.0258 6.36041 17.2067 6.35591 17.4044C6.35512 17.4377 6.35512 17.471 6.35512 17.5048C6.35512 20.2071 7.80378 22.64 10.0186 23.9661C9.82833 23.947 9.63817 23.9193 9.44924 23.8831C9.25447 23.8457 9.05418 23.9143 8.92284 24.0634C8.79126 24.2124 8.74774 24.4202 8.80836 24.6099C9.62816 27.1795 11.7389 29.0697 14.2905 29.6459C12.1742 30.9767 9.754 31.6738 7.21339 31.6738C6.68327 31.6738 6.15011 31.6425 5.62832 31.5805C5.36911 31.5496 5.12125 31.7032 5.03297 31.9507C4.9447 32.1983 5.03826 32.4744 5.25879 32.6163C8.5226 34.7173 12.2965 35.8278 16.1723 35.8278C23.7917 35.8278 28.5582 32.2206 31.2149 29.1944C34.5279 25.4211 36.428 20.4266 36.428 15.4917C36.428 15.2855 36.4248 15.0773 36.4185 14.8698C37.7256 13.8811 38.8509 12.6846 39.7667 11.3093C39.9058 11.1004 39.8907 10.8244 39.7296 10.6321C39.5686 10.4397 39.3004 10.3775 39.0715 10.4794Z" fill="currentColor"/>
  </symbol>

</svg>
 
<svg xmlns="http://www.w3.org/2000/svg" style="display:none">
<symbol id="icon-calendar" viewBox="0 0 44 44">
<path d="M40 11.3808C40 10.2903 39.561 9.2445 38.7796 8.47342C37.9982 7.70234 36.9385 7.26915 35.8334 7.26915H31.7317V5.6519C31.7317 5.40958 31.6341 5.17717 31.4605 5.00582C31.2868 4.83447 31.0513 4.73821 30.8058 4.73821C30.5602 4.73821 30.3247 4.83447 30.1511 5.00582C29.9774 5.17717 29.8799 5.40958 29.8799 5.6519V7.26915H13.9173V5.6519C13.9173 5.40958 13.8197 5.17717 13.6461 5.00582C13.4725 4.83447 13.237 4.73821 12.9914 4.73821C12.7458 4.73821 12.5103 4.83447 12.3367 5.00582C12.163 5.17717 12.0655 5.40958 12.0655 5.6519V7.26915H7.96374C6.8587 7.26915 5.79892 7.70234 5.01754 8.47342C4.23616 9.2445 3.79718 10.2903 3.79718 11.3808V34.1502C3.79718 35.2406 4.23616 36.2864 5.01754 37.0575C5.79892 37.8286 6.8587 38.2618 7.96374 38.2618H35.8334C36.9385 38.2618 37.9982 37.8286 38.7796 37.0575C39.561 36.2864 40 35.2406 40 34.1502V11.3808ZM38.1482 34.1547C38.1482 34.4547 38.0883 34.7517 37.972 35.0289C37.8556 35.306 37.6851 35.5578 37.4702 35.7699C37.2553 35.982 37.0001 36.1503 36.7192 36.2651C36.4384 36.3799 36.1374 36.439 35.8334 36.439H7.96374C7.65976 36.439 7.35876 36.3799 7.07792 36.2651C6.79708 36.1503 6.54191 35.982 6.32696 35.7699C6.11202 35.5578 5.94151 35.306 5.82519 35.0289C5.70886 34.7517 5.64899 34.4547 5.64899 34.1547V18.2792H38.1482V34.1547ZM38.1482 16.4564H5.64899V11.3808C5.64899 10.775 5.89286 10.194 6.32696 9.76559C6.76106 9.33721 7.34983 9.09655 7.96374 9.09655H12.0701V11.6275C12.0701 11.8698 12.1677 12.1022 12.3413 12.2736C12.515 12.4449 12.7505 12.5412 12.996 12.5412C13.2416 12.5412 13.4771 12.4449 13.6507 12.2736C13.8244 12.1022 13.9219 11.8698 13.9219 11.6275V9.09655H29.8799V11.6275C29.8799 11.8698 29.9774 12.1022 30.1511 12.2736C30.3247 12.4449 30.5602 12.5412 30.8058 12.5412C31.0513 12.5412 31.2868 12.4449 31.4605 12.2736C31.6341 12.1022 31.7317 11.8698 31.7317 11.6275V9.09655H35.8334C36.4473 9.09655 37.0361 9.33721 37.4702 9.76559C37.9043 10.194 38.1482 10.775 38.1482 11.3808V16.4564Z" fill="currentColor"/>
<path d="M14.959 21.0432H14.9544C13.924 21.0432 13.0887 21.8674 13.0887 22.8843V22.8888C13.0887 23.9056 13.924 24.7299 14.9544 24.7299H14.959C15.9894 24.7299 16.8247 23.9056 16.8247 22.8888V22.8843C16.8247 21.8674 15.9894 21.0432 14.959 21.0432Z" fill="currentColor"/>
<path d="M19.5885 21.0432H19.5838C18.5534 21.0432 17.7181 21.8674 17.7181 22.8843V22.8888C17.7181 23.9056 18.5534 24.7299 19.5838 24.7299H19.5885C20.6189 24.7299 21.4542 23.9056 21.4542 22.8888V22.8843C21.4542 21.8674 20.6189 21.0432 19.5885 21.0432Z" fill="currentColor"/>
<path d="M24.218 21.0432H24.2134C23.183 21.0432 22.3477 21.8674 22.3477 22.8843V22.8888C22.3477 23.9056 23.183 24.7299 24.2134 24.7299H24.218C25.2484 24.7299 26.0837 23.9056 26.0837 22.8888V22.8843C26.0837 21.8674 25.2484 21.0432 24.218 21.0432Z" fill="currentColor"/>
<path d="M28.8474 21.0432H28.8428C27.8124 21.0432 26.9771 21.8674 26.9771 22.8843V22.8888C26.9771 23.9056 27.8124 24.7299 28.8428 24.7299H28.8474C29.8778 24.7299 30.7131 23.9056 30.7131 22.8888V22.8843C30.7131 21.8674 29.8778 21.0432 28.8474 21.0432Z" fill="currentColor"/>
<path d="M33.477 21.0432H33.4724C32.442 21.0432 31.6067 21.8674 31.6067 22.8843V22.8888C31.6067 23.9056 32.442 24.7299 33.4724 24.7299H33.477C34.5074 24.7299 35.3427 23.9056 35.3427 22.8888V22.8843C35.3427 21.8674 34.5074 21.0432 33.477 21.0432Z" fill="currentColor"/>
<path d="M10.3294 25.6116H10.3248C9.29441 25.6116 8.45911 26.4359 8.45911 27.4527V27.4573C8.45911 28.4741 9.29441 29.2984 10.3248 29.2984H10.3294C11.3598 29.2984 12.1951 28.4741 12.1951 27.4573V27.4527C12.1951 26.4359 11.3598 25.6116 10.3294 25.6116Z" fill="currentColor"/>
<path d="M14.959 25.6116H14.9544C13.924 25.6116 13.0887 26.4359 13.0887 27.4527V27.4573C13.0887 28.4741 13.924 29.2984 14.9544 29.2984H14.959C15.9894 29.2984 16.8247 28.4741 16.8247 27.4573V27.4527C16.8247 26.4359 15.9894 25.6116 14.959 25.6116Z" fill="currentColor"/>
<path d="M19.5885 25.6116H19.5838C18.5534 25.6116 17.7181 26.4359 17.7181 27.4527V27.4573C17.7181 28.4741 18.5534 29.2984 19.5838 29.2984H19.5885C20.6189 29.2984 21.4542 28.4741 21.4542 27.4573V27.4527C21.4542 26.4359 20.6189 25.6116 19.5885 25.6116Z" fill="currentColor"/>
<path d="M24.218 25.6116H24.2134C23.183 25.6116 22.3477 26.4359 22.3477 27.4527V27.4573C22.3477 28.4741 23.183 29.2984 24.2134 29.2984H24.218C25.2484 29.2984 26.0837 28.4741 26.0837 27.4573V27.4527C26.0837 26.4359 25.2484 25.6116 24.218 25.6116Z" fill="currentColor"/>
<path d="M28.8474 25.6116H28.8428C27.8124 25.6116 26.9771 26.4359 26.9771 27.4527V27.4573C26.9771 28.4741 27.8124 29.2984 28.8428 29.2984H28.8474C29.8778 29.2984 30.7131 28.4741 30.7131 27.4573V27.4527C30.7131 26.4359 29.8778 25.6116 28.8474 25.6116Z" fill="currentColor"/>
<path d="M33.477 25.6116H33.4724C32.442 25.6116 31.6067 26.4359 31.6067 27.4527V27.4573C31.6067 28.4741 32.442 29.2984 33.4724 29.2984H33.477C34.5074 29.2984 35.3427 28.4741 35.3427 27.4573V27.4527C35.3427 26.4359 34.5074 25.6116 33.477 25.6116Z" fill="currentColor"/>
<path d="M10.3294 30.1801H10.3248C9.29441 30.1801 8.45911 31.0044 8.45911 32.0212V32.0258C8.45911 33.0426 9.29441 33.8669 10.3248 33.8669H10.3294C11.3598 33.8669 12.1951 33.0426 12.1951 32.0258V32.0212C12.1951 31.0044 11.3598 30.1801 10.3294 30.1801Z" fill="currentColor"/>
<path d="M14.959 30.1801H14.9544C13.924 30.1801 13.0887 31.0044 13.0887 32.0212V32.0258C13.0887 33.0426 13.924 33.8669 14.9544 33.8669H14.959C15.9894 33.8669 16.8247 33.0426 16.8247 32.0258V32.0212C16.8247 31.0044 15.9894 30.1801 14.959 30.1801Z" fill="currentColor"/>
<path d="M19.5885 30.1801H19.5838C18.5534 30.1801 17.7181 31.0044 17.7181 32.0212V32.0258C17.7181 33.0426 18.5534 33.8669 19.5838 33.8669H19.5885C20.6189 33.8669 21.4542 33.0426 21.4542 32.0258V32.0212C21.4542 31.0044 20.6189 30.1801 19.5885 30.1801Z" fill="currentColor"/>
<path d="M24.218 30.1801H24.2134C23.183 30.1801 22.3477 31.0044 22.3477 32.0212V32.0258C22.3477 33.0426 23.183 33.8669 24.2134 33.8669H24.218C25.2484 33.8669 26.0837 33.0426 26.0837 32.0258V32.0212C26.0837 31.0044 25.2484 30.1801 24.218 30.1801Z" fill="currentColor"/>
<path d="M28.8474 30.1801H28.8428C27.8124 30.1801 26.9771 31.0044 26.9771 32.0212V32.0258C26.9771 33.0426 27.8124 33.8669 28.8428 33.8669H28.8474C29.8778 33.8669 30.7131 33.0426 30.7131 32.0258V32.0212C30.7131 31.0044 29.8778 30.1801 28.8474 30.1801Z" fill="currentColor"/>
</symbol>
<symbol id="icon-location" viewBox="0 0 44 44">
<path d="M8.08638 37.7672L12.892 28.0068C12.9879 27.812 13.1541 27.6628 13.3533 27.5814L15.7441 26.5595L11.6016 19.8932C11.5917 19.8772 11.5824 19.861 11.5735 19.8445C10.7499 18.301 10.3322 16.6331 10.3322 14.8874C10.3322 11.9508 11.5316 9.19765 13.7094 7.13532C15.8868 5.07346 18.7715 3.95982 21.8318 4.00111C24.8041 4.04069 27.6027 5.18701 29.7121 7.22904C31.8213 9.27093 32.9926 11.9672 33.0103 14.8214C33.0211 16.5656 32.5919 18.3025 31.7693 19.8444C31.7605 19.8609 31.7511 19.8772 31.7412 19.8932L27.5988 26.5594L30.0034 27.5869C30.2001 27.6709 30.3588 27.8198 30.4508 28.0067L35.2563 37.7672C35.4171 38.0936 35.3493 38.4818 35.0863 38.74C34.8234 38.9982 34.421 39.0721 34.0773 38.9253L28.0572 36.3518L22.037 38.9253C21.8042 39.0247 21.5382 39.0247 21.3054 38.9253L15.2852 36.3518L9.26509 38.9253C9.14747 38.9755 9.02295 39 8.8995 39C8.66235 39 8.42904 38.9099 8.25611 38.74C7.99332 38.4818 7.92555 38.0938 8.08638 37.7672ZM30.1811 19.0326C30.8738 17.7248 31.2204 16.3116 31.2113 14.8318C31.1808 9.88056 26.9619 5.7967 21.8068 5.72814C19.2319 5.69492 16.8044 6.63041 14.9725 8.36517C13.1401 10.1003 12.1311 12.4166 12.1311 14.8875C12.1311 16.3476 12.4777 17.742 13.1615 19.0326L20.8988 31.4842C21.1351 31.8642 21.5177 31.9053 21.6712 31.9053C21.8249 31.9053 22.2075 31.8642 22.4436 31.4842L30.1811 19.0326ZM14.9196 34.6176C15.1524 34.5181 15.4184 34.5181 15.6512 34.6176L21.6714 37.191L27.6915 34.6176C27.9244 34.5181 28.1903 34.5181 28.4232 34.6176L32.5937 36.4004L28.9671 29.0347L26.6705 28.0533L23.9887 32.3691C23.4972 33.1601 22.6309 33.6324 21.6715 33.6324C20.7122 33.6324 19.8459 33.1601 19.3543 32.3691L16.6725 28.0534L14.3757 29.0351L10.7494 36.4004L14.9196 34.6176Z" fill="currentColor"/>
<path d="M21.671 10.9458C23.9346 10.9458 25.7761 12.7139 25.7761 14.8873C25.7761 17.0606 23.9346 18.8287 21.671 18.8287C19.4075 18.8288 17.566 17.0606 17.566 14.8873C17.566 12.7139 19.4075 10.9458 21.671 10.9458ZM21.671 17.1016C22.9426 17.1016 23.9772 16.1084 23.9772 14.8873C23.9772 13.6663 22.9427 12.673 21.671 12.673C20.3994 12.673 19.3649 13.6663 19.3649 14.8873C19.3649 16.1082 20.3994 17.1016 21.671 17.1016Z" fill="currentColor"/>
</symbol>
<symbol id="icon-winner" viewBox="0 0 44 44">
<path d="M41.8572 8.23511C41.7734 8.10048 41.6567 7.98952 41.5183 7.9127C41.3799 7.83587 41.2243 7.79573 41.0661 7.79604H33.4441L33.8675 5.25507C33.89 5.12014 33.8827 4.98189 33.8461 4.8501C33.8095 4.71831 33.7446 4.5962 33.6558 4.49239C33.567 4.38858 33.4566 4.3056 33.3324 4.24934C33.2082 4.19307 33.0731 4.16487 32.9369 4.16675H11.0664C10.9302 4.16487 10.7951 4.19307 10.6709 4.24934C10.5467 4.3056 10.4363 4.38858 10.3475 4.49239C10.2587 4.5962 10.1938 4.71831 10.1572 4.8501C10.1206 4.98189 10.1133 5.12014 10.1358 5.25507L10.5592 7.79604H2.93252C2.77436 7.79573 2.61873 7.83587 2.48032 7.91269C2.34191 7.98952 2.22529 8.10048 2.14146 8.23511C2.05764 8.36973 2.00938 8.52358 2.00123 8.68213C1.99309 8.84068 2.02534 8.9987 2.09493 9.14126L6.12932 17.4648C6.77898 18.7874 7.76374 19.9151 8.98478 20.735C10.2058 21.5548 11.6202 22.0379 13.086 22.1357C13.5209 23.373 14.2082 24.5056 15.104 25.4611C15.9998 26.4166 17.0843 27.174 18.2883 27.6847V32.1128H17.2413C16.0893 32.1128 14.9844 32.5721 14.1698 33.3899C13.3552 34.2076 12.8975 35.3166 12.8975 36.473C12.8975 37.6295 13.3552 38.7385 14.1698 39.5562C14.9844 40.3739 16.0893 40.8333 17.2413 40.8333H26.7806C27.9326 40.8333 29.0375 40.3739 29.8521 39.5562C30.6668 38.7385 31.1244 37.6295 31.1244 36.473C31.1244 35.3166 30.6668 34.2076 29.8521 33.3899C29.0375 32.5721 27.9326 32.1128 26.7806 32.1128H25.7336V27.6847C26.9346 27.1713 28.0158 26.4123 28.9083 25.4561C29.8009 24.4999 30.4851 23.3675 30.9173 22.131C32.3831 22.0332 33.7975 21.5501 35.0185 20.7303C36.2396 19.9105 37.2243 18.7827 37.874 17.4601L41.9084 9.13659C41.9764 8.99423 42.0074 8.83688 41.9985 8.67923C41.9895 8.52158 41.9409 8.36878 41.8572 8.23511ZM7.82311 16.6427L4.44018 9.6644H10.8896L12.6393 20.2066C11.6103 20.0447 10.6354 19.6362 9.79702 19.0159C8.95867 18.3955 8.28159 17.5815 7.82311 16.6427ZM29.2608 36.4754C29.2595 37.1353 28.9978 37.7678 28.533 38.2344C28.0681 38.701 27.438 38.9637 26.7806 38.965H17.2413C16.5829 38.965 15.9515 38.7024 15.4859 38.2351C15.0204 37.7678 14.7588 37.1339 14.7588 36.473C14.7588 35.8121 15.0204 35.1783 15.4859 34.711C15.9515 34.2437 16.5829 33.9811 17.2413 33.9811H26.7806C27.4388 33.9824 28.0696 34.2457 28.5346 34.7133C28.9996 35.181 29.2608 35.8147 29.2608 36.4754ZM23.8723 32.1128H20.1496V28.2686C21.3779 28.5203 22.6441 28.5203 23.8723 28.2686V32.1128ZM22.011 26.5871C20.2141 26.592 18.4742 25.9544 17.1031 24.7887C15.732 23.623 14.8193 22.0052 14.5285 20.2253L12.1739 6.03511H31.848L29.4934 20.2253C29.2026 22.0052 28.2899 23.623 26.9188 24.7887C25.5477 25.9544 23.8078 26.592 22.011 26.5871ZM36.1988 16.6427C35.7397 17.5806 35.0624 18.3937 34.2241 19.0132C33.3858 19.6327 32.4112 20.0405 31.3827 20.202L33.1323 9.6644H39.5817L36.1988 16.6427Z" fill="currentColor"/>
</symbol>
</svg>


