<svg xmlns="http://www.w3.org/2000/svg" style="display:none">

  <symbol id="icon-fb" viewBox="0 0 44 44">
   <path d="M13.5623 22.641H17.3837V38.4355C17.3837 38.7473 17.6353 39 17.9459 39H24.4252C24.7358 39 24.9875 38.7473 24.9875 38.4355V22.7154H29.3805C29.6661 22.7154 29.9065 22.5002 29.9391 22.2154L30.6063 16.4006C30.6246 16.2406 30.5741 16.0804 30.4675 15.9604C30.3608 15.8403 30.2081 15.7715 30.0478 15.7715H24.9877V12.1265C24.9877 11.0278 25.577 10.4706 26.7393 10.4706C26.905 10.4706 30.0478 10.4706 30.0478 10.4706C30.3584 10.4706 30.6101 10.2178 30.6101 9.90608V4.56869C30.6101 4.25685 30.3584 4.00418 30.0478 4.00418H25.4883C25.4561 4.0026 25.3847 4 25.2794 4C24.4883 4 21.7384 4.15592 19.5662 6.16221C17.1594 8.3855 17.494 11.0475 17.5739 11.5091V15.7714H13.5623C13.2517 15.7714 13 16.0241 13 16.3359V22.0764C13 22.3882 13.2517 22.641 13.5623 22.641Z" fill="currentColor"/>
  </symbol>

  <symbol id="icon-inst" viewBox="0 0 44 44">
    <path d="M9.33182 4.56592H34.4071C36.7894 4.56592 38.7369 6.52185 38.7369 8.9136V34.0885C38.7369 36.4796 36.7894 38.4342 34.4071 38.4342H9.33182C6.94954 38.4342 5 36.4795 5 34.0885V8.9136C5 6.52185 6.94954 4.56592 9.33182 4.56592ZM29.5769 8.32751C28.7404 8.32751 28.0582 9.01521 28.0582 9.85453V13.5029C28.0582 14.3425 28.7404 15.0287 29.5769 15.0287H33.3895C34.2246 15.0287 34.9083 14.3425 34.9083 13.5029V9.85453C34.9083 9.01521 34.2246 8.32751 33.3895 8.32751H29.5769ZM34.9228 18.8884H31.9544C32.2359 19.8114 32.3885 20.7847 32.3885 21.7966C32.3885 27.4285 27.6917 31.9963 21.9002 31.9963C16.1101 31.9963 11.4132 27.4285 11.4132 21.7966C11.4132 20.7847 11.5672 19.8114 11.8474 18.8884H8.75042V33.1968C8.75042 33.9378 9.35307 34.5406 10.0904 34.5406H33.5834C34.3214 34.5406 34.9228 33.9378 34.9228 33.1968V18.8884ZM21.9003 14.8363C18.16 14.8363 15.1259 17.7862 15.1259 21.4285C15.1259 25.067 18.16 28.0192 21.9003 28.0192C25.6426 28.0192 28.6768 25.067 28.6768 21.4285C28.6768 17.7861 25.6426 14.8363 21.9003 14.8363Z" fill="currentColor"/>
  </symbol>

  <symbol id="icon-twitter" viewBox="0 0 44 44">
    <path d="M39.0715 10.4794C38.5238 10.7232 37.9607 10.929 37.3854 11.0961C38.0666 10.3228 38.5859 9.41275 38.9029 8.41695C38.974 8.19374 38.9003 7.94942 38.7176 7.80343C38.535 7.65733 38.2815 7.63983 38.0805 7.7594C36.8587 8.48695 35.5404 9.0098 34.1582 9.31554C32.7659 7.94964 30.8749 7.1723 28.9199 7.1723C24.7933 7.1723 21.4361 10.5428 21.4361 14.6857C21.4361 15.012 21.4566 15.3364 21.4974 15.6564C16.3767 15.205 11.6161 12.6781 8.34695 8.65212C8.23044 8.50862 8.05096 8.43129 7.86721 8.44608C7.68334 8.46053 7.51814 8.56462 7.42526 8.72461C6.76221 9.86685 6.41169 11.1733 6.41169 12.5025C6.41169 14.3129 7.0555 16.0306 8.19277 17.3728C7.84697 17.2525 7.5114 17.1023 7.19112 16.9238C7.01918 16.8277 6.80933 16.8291 6.63851 16.9275C6.46758 17.0258 6.36041 17.2067 6.35591 17.4044C6.35512 17.4377 6.35512 17.471 6.35512 17.5048C6.35512 20.2071 7.80378 22.64 10.0186 23.9661C9.82833 23.947 9.63817 23.9193 9.44924 23.8831C9.25447 23.8457 9.05418 23.9143 8.92284 24.0634C8.79126 24.2124 8.74774 24.4202 8.80836 24.6099C9.62816 27.1795 11.7389 29.0697 14.2905 29.6459C12.1742 30.9767 9.754 31.6738 7.21339 31.6738C6.68327 31.6738 6.15011 31.6425 5.62832 31.5805C5.36911 31.5496 5.12125 31.7032 5.03297 31.9507C4.9447 32.1983 5.03826 32.4744 5.25879 32.6163C8.5226 34.7173 12.2965 35.8278 16.1723 35.8278C23.7917 35.8278 28.5582 32.2206 31.2149 29.1944C34.5279 25.4211 36.428 20.4266 36.428 15.4917C36.428 15.2855 36.4248 15.0773 36.4185 14.8698C37.7256 13.8811 38.8509 12.6846 39.7667 11.3093C39.9058 11.1004 39.8907 10.8244 39.7296 10.6321C39.5686 10.4397 39.3004 10.3775 39.0715 10.4794Z" fill="currentColor"/>
  </symbol>
 
<svg xmlns="http://www.w3.org/2000/svg" style="display:none">

  <symbol id="icon-calendar" viewBox="0 0 44 44">
    <path d="M40 11.3808C40 10.2903 39.561 9.2445 38.7796 8.47342C37.9982 7.70234 36.9385 7.26915 35.8334 7.26915H31.7317V5.6519C31.7317 5.40958 31.6341 5.17717 31.4605 5.00582C31.2868 4.83447 31.0513 4.73821 30.8058 4.73821C30.5602 4.73821 30.3247 4.83447 30.1511 5.00582C29.9774 5.17717 29.8799 5.40958 29.8799 5.6519V7.26915H13.9173V5.6519C13.9173 5.40958 13.8197 5.17717 13.6461 5.00582C13.4725 4.83447 13.237 4.73821 12.9914 4.73821C12.7458 4.73821 12.5103 4.83447 12.3367 5.00582C12.163 5.17717 12.0655 5.40958 12.0655 5.6519V7.26915H7.96374C6.8587 7.26915 5.79892 7.70234 5.01754 8.47342C4.23616 9.2445 3.79718 10.2903 3.79718 11.3808V34.1502C3.79718 35.2406 4.23616 36.2864 5.01754 37.0575C5.79892 37.8286 6.8587 38.2618 7.96374 38.2618H35.8334C36.9385 38.2618 37.9982 37.8286 38.7796 37.0575C39.561 36.2864 40 35.2406 40 34.1502V11.3808ZM38.1482 34.1547C38.1482 34.4547 38.0883 34.7517 37.972 35.0289C37.8556 35.306 37.6851 35.5578 37.4702 35.7699C37.2553 35.982 37.0001 36.1503 36.7192 36.2651C36.4384 36.3799 36.1374 36.439 35.8334 36.439H7.96374C7.65976 36.439 7.35876 36.3799 7.07792 36.2651C6.79708 36.1503 6.54191 35.982 6.32696 35.7699C6.11202 35.5578 5.94151 35.306 5.82519 35.0289C5.70886 34.7517 5.64899 34.4547 5.64899 34.1547V18.2792H38.1482V34.1547ZM38.1482 16.4564H5.64899V11.3808C5.64899 10.775 5.89286 10.194 6.32696 9.76559C6.76106 9.33721 7.34983 9.09655 7.96374 9.09655H12.0701V11.6275C12.0701 11.8698 12.1677 12.1022 12.3413 12.2736C12.515 12.4449 12.7505 12.5412 12.996 12.5412C13.2416 12.5412 13.4771 12.4449 13.6507 12.2736C13.8244 12.1022 13.9219 11.8698 13.9219 11.6275V9.09655H29.8799V11.6275C29.8799 11.8698 29.9774 12.1022 30.1511 12.2736C30.3247 12.4449 30.5602 12.5412 30.8058 12.5412C31.0513 12.5412 31.2868 12.4449 31.4605 12.2736C31.6341 12.1022 31.7317 11.8698 31.7317 11.6275V9.09655H35.8334C36.4473 9.09655 37.0361 9.33721 37.4702 9.76559C37.9043 10.194 38.1482 10.775 38.1482 11.3808V16.4564Z" fill="currentColor"/>
<path d="M14.959 21.0432H14.9544C13.924 21.0432 13.0887 21.8674 13.0887 22.8843V22.8888C13.0887 23.9056 13.924 24.7299 14.9544 24.7299H14.959C15.9894 24.7299 16.8247 23.9056 16.8247 22.8888V22.8843C16.8247 21.8674 15.9894 21.0432 14.959 21.0432Z" fill="currentColor"/>
<path d="M19.5885 21.0432H19.5838C18.5534 21.0432 17.7181 21.8674 17.7181 22.8843V22.8888C17.7181 23.9056 18.5534 24.7299 19.5838 24.7299H19.5885C20.6189 24.7299 21.4542 23.9056 21.4542 22.8888V22.8843C21.4542 21.8674 20.6189 21.0432 19.5885 21.0432Z" fill="currentColor"/>
<path d="M24.218 21.0432H24.2134C23.183 21.0432 22.3477 21.8674 22.3477 22.8843V22.8888C22.3477 23.9056 23.183 24.7299 24.2134 24.7299H24.218C25.2484 24.7299 26.0837 23.9056 26.0837 22.8888V22.8843C26.0837 21.8674 25.2484 21.0432 24.218 21.0432Z" fill="currentColor"/>
<path d="M28.8474 21.0432H28.8428C27.8124 21.0432 26.9771 21.8674 26.9771 22.8843V22.8888C26.9771 23.9056 27.8124 24.7299 28.8428 24.7299H28.8474C29.8778 24.7299 30.7131 23.9056 30.7131 22.8888V22.8843C30.7131 21.8674 29.8778 21.0432 28.8474 21.0432Z" fill="currentColor"/>
<path d="M33.477 21.0432H33.4724C32.442 21.0432 31.6067 21.8674 31.6067 22.8843V22.8888C31.6067 23.9056 32.442 24.7299 33.4724 24.7299H33.477C34.5074 24.7299 35.3427 23.9056 35.3427 22.8888V22.8843C35.3427 21.8674 34.5074 21.0432 33.477 21.0432Z" fill="currentColor"/>
<path d="M10.3294 25.6116H10.3248C9.29441 25.6116 8.45911 26.4359 8.45911 27.4527V27.4573C8.45911 28.4741 9.29441 29.2984 10.3248 29.2984H10.3294C11.3598 29.2984 12.1951 28.4741 12.1951 27.4573V27.4527C12.1951 26.4359 11.3598 25.6116 10.3294 25.6116Z" fill="currentColor"/>
<path d="M14.959 25.6116H14.9544C13.924 25.6116 13.0887 26.4359 13.0887 27.4527V27.4573C13.0887 28.4741 13.924 29.2984 14.9544 29.2984H14.959C15.9894 29.2984 16.8247 28.4741 16.8247 27.4573V27.4527C16.8247 26.4359 15.9894 25.6116 14.959 25.6116Z" fill="currentColor"/>
<path d="M19.5885 25.6116H19.5838C18.5534 25.6116 17.7181 26.4359 17.7181 27.4527V27.4573C17.7181 28.4741 18.5534 29.2984 19.5838 29.2984H19.5885C20.6189 29.2984 21.4542 28.4741 21.4542 27.4573V27.4527C21.4542 26.4359 20.6189 25.6116 19.5885 25.6116Z" fill="currentColor"/>
<path d="M24.218 25.6116H24.2134C23.183 25.6116 22.3477 26.4359 22.3477 27.4527V27.4573C22.3477 28.4741 23.183 29.2984 24.2134 29.2984H24.218C25.2484 29.2984 26.0837 28.4741 26.0837 27.4573V27.4527C26.0837 26.4359 25.2484 25.6116 24.218 25.6116Z" fill="currentColor"/>
<path d="M28.8474 25.6116H28.8428C27.8124 25.6116 26.9771 26.4359 26.9771 27.4527V27.4573C26.9771 28.4741 27.8124 29.2984 28.8428 29.2984H28.8474C29.8778 29.2984 30.7131 28.4741 30.7131 27.4573V27.4527C30.7131 26.4359 29.8778 25.6116 28.8474 25.6116Z" fill="currentColor"/>
<path d="M33.477 25.6116H33.4724C32.442 25.6116 31.6067 26.4359 31.6067 27.4527V27.4573C31.6067 28.4741 32.442 29.2984 33.4724 29.2984H33.477C34.5074 29.2984 35.3427 28.4741 35.3427 27.4573V27.4527C35.3427 26.4359 34.5074 25.6116 33.477 25.6116Z" fill="currentColor"/>
<path d="M10.3294 30.1801H10.3248C9.29441 30.1801 8.45911 31.0044 8.45911 32.0212V32.0258C8.45911 33.0426 9.29441 33.8669 10.3248 33.8669H10.3294C11.3598 33.8669 12.1951 33.0426 12.1951 32.0258V32.0212C12.1951 31.0044 11.3598 30.1801 10.3294 30.1801Z" fill="currentColor"/>
<path d="M14.959 30.1801H14.9544C13.924 30.1801 13.0887 31.0044 13.0887 32.0212V32.0258C13.0887 33.0426 13.924 33.8669 14.9544 33.8669H14.959C15.9894 33.8669 16.8247 33.0426 16.8247 32.0258V32.0212C16.8247 31.0044 15.9894 30.1801 14.959 30.1801Z" fill="currentColor"/>
<path d="M19.5885 30.1801H19.5838C18.5534 30.1801 17.7181 31.0044 17.7181 32.0212V32.0258C17.7181 33.0426 18.5534 33.8669 19.5838 33.8669H19.5885C20.6189 33.8669 21.4542 33.0426 21.4542 32.0258V32.0212C21.4542 31.0044 20.6189 30.1801 19.5885 30.1801Z" fill="currentColor"/>
<path d="M24.218 30.1801H24.2134C23.183 30.1801 22.3477 31.0044 22.3477 32.0212V32.0258C22.3477 33.0426 23.183 33.8669 24.2134 33.8669H24.218C25.2484 33.8669 26.0837 33.0426 26.0837 32.0258V32.0212C26.0837 31.0044 25.2484 30.1801 24.218 30.1801Z" fill="currentColor"/>
<path d="M28.8474 30.1801H28.8428C27.8124 30.1801 26.9771 31.0044 26.9771 32.0212V32.0258C26.9771 33.0426 27.8124 33.8669 28.8428 33.8669H28.8474C29.8778 33.8669 30.7131 33.0426 30.7131 32.0258V32.0212C30.7131 31.0044 29.8778 30.1801 28.8474 30.1801Z" fill="currentColor"/>
  </symbol>

  <symbol id="icon-location" viewBox="0 0 44 44">
    <path d="M8.08638 37.7672L12.892 28.0068C12.9879 27.812 13.1541 27.6628 13.3533 27.5814L15.7441 26.5595L11.6016 19.8932C11.5917 19.8772 11.5824 19.861 11.5735 19.8445C10.7499 18.301 10.3322 16.6331 10.3322 14.8874C10.3322 11.9508 11.5316 9.19765 13.7094 7.13532C15.8868 5.07346 18.7715 3.95982 21.8318 4.00111C24.8041 4.04069 27.6027 5.18701 29.7121 7.22904C31.8213 9.27093 32.9926 11.9672 33.0103 14.8214C33.0211 16.5656 32.5919 18.3025 31.7693 19.8444L27.5988 26.5594L30.0034 27.5869C30.2001 27.6709 30.3588 27.8198 30.4508 28.0067L35.2563 37.7672C35.4171 38.0936 35.3493 38.4818 35.0863 38.74C34.8234 38.9982 34.421 39.0721 34.0773 38.9253L28.0572 36.3518L22.037 38.9253C21.8042 39.0247 21.5382 39.0247 21.3054 38.9253L15.2852 36.3518L9.26509 38.9253C9.14747 38.9755 9.02295 39 8.8995 39C8.66235 39 8.42904 38.9099 8.25611 38.74C7.99332 38.4818 7.92555 38.0938 8.08638 37.7672ZM30.1811 19.0326C30.8738 17.7248 31.2204 16.3116 31.2113 14.8318C31.1808 9.88056 26.9619 5.7967 21.8068 5.72814C19.2319 5.69492 16.8044 6.63041 14.9725 8.36517C13.1401 10.1003 12.1311 12.4166 12.1311 14.8875C12.1311 16.3476 12.4777 17.742 13.1615 19.0326L20.8988 31.4842C21.1351 31.8642 21.5177 31.9053 21.6712 31.9053C21.8249 31.9053 22.2075 31.8642 22.4436 31.4842L30.1811 19.0326Z" fill="currentColor"/>
  </symbol>

  <symbol id="icon-winner" viewBox="0 0 44 44">
    <path d="M41.8572 8.23511C41.7734 8.10048 41.6567 7.98952 41.5183 7.9127C41.3799 7.83587 41.2243 7.79573 41.0661 7.79604H33.4441L33.8675 5.25507C33.89 5.12014 33.8827 4.98189 33.8461 4.8501C33.8095 4.71831 33.7446 4.5962 33.6558 4.49239C33.567 4.38858 33.4566 4.3056 33.3324 4.24934C33.2082 4.19307 33.0731 4.16487 32.9369 4.16675H11.0664C10.9302 4.16487 10.7951 4.19307 10.6709 4.24934C10.5467 4.3056 10.4363 4.38858 10.3475 4.49239C10.2587 4.5962 10.1938 4.71831 10.1572 4.8501C10.1206 4.98189 10.1133 5.12014 10.1358 5.25507L10.5592 7.79604H2.93252C2.77436 7.79573 2.61873 7.83587 2.48032 7.91269C2.34191 7.98952 2.22529 8.10048 2.14146 8.23511C2.05764 8.36973 2.00938 8.52358 2.00123 8.68213C1.99309 8.84068 2.02534 8.9987 2.09493 9.14126L6.12932 17.4648C6.77898 18.7874 7.76374 19.9151 8.98478 20.735C10.2058 21.5548 11.6202 22.0379 13.086 22.1357C13.5209 23.373 14.2082 24.5056 15.104 25.4611C15.9998 26.4166 17.0843 27.174 18.2883 27.6847V32.1128H17.2413C16.0893 32.1128 14.9844 32.5721 14.1698 33.3899C13.3552 34.2076 12.8975 35.3166 12.8975 36.473C12.8975 37.6295 13.3552 38.7385 14.1698 39.5562C14.9844 40.3739 16.0893 40.8333 17.2413 40.8333H26.7806C27.9326 40.8333 29.0375 40.3739 29.8521 39.5562C30.6668 38.7385 31.1244 37.6295 31.1244 36.473C31.1244 35.3166 30.6668 34.2076 29.8521 33.3899C29.0375 32.5721 27.9326 32.1128 26.7806 32.1128H25.7336V27.6847C26.9346 27.1713 28.0158 26.4123 28.9083 25.4561C29.8009 24.4999 30.4851 23.3675 30.9173 22.131C32.3831 22.0332 33.7975 21.5501 35.0185 20.7303C36.2396 19.9105 37.2243 18.7827 37.874 17.4601L41.9084 9.13659C41.9764 8.99423 42.0074 8.83688 41.9985 8.67923C41.9895 8.52158 41.9409 8.36878 41.8572 8.23511ZM7.82311 16.6427L4.44018 9.6644H10.8896L12.6393 20.2066C11.6103 20.0447 10.6354 19.6362 9.79702 19.0159C8.95867 18.3955 8.28159 17.5815 7.82311 16.6427ZM29.2608 36.4754C29.2595 37.1353 28.9978 37.7678 28.533 38.2344C28.0681 38.701 27.438 38.9637 26.7806 38.965H17.2413C16.5829 38.965 15.9515 38.7024 15.4859 38.2351C15.0204 37.7678 14.7588 37.1339 14.7588 36.473C14.7588 35.8121 15.0204 35.1783 15.4859 34.711C15.9515 34.2437 16.5829 33.9811 17.2413 33.9811H26.7806C27.4388 33.9824 28.0696 34.2457 28.5346 34.7133C28.9996 35.181 29.2608 35.8147 29.2608 36.4754ZM23.8723 32.1128H20.1496V28.2686C21.3779 28.5203 22.6441 28.5203 23.8723 28.2686V32.1128ZM22.011 26.5871C20.2141 26.592 18.4742 25.9544 17.1031 24.7887C15.732 23.623 14.8193 22.0052 14.5285 20.2253L12.1739 6.03511H31.848L29.4934 20.2253C29.2026 22.0052 28.2899 23.623 26.9188 24.7887C25.5477 25.9544 23.8078 26.592 22.011 26.5871ZM36.1988 16.6427C35.7397 17.5806 35.0624 18.3937 34.2241 19.0132C33.3858 19.6327 32.4112 20.0405 31.3827 20.202L33.1323 9.6644H39.5817L36.1988 16.6427Z" fill="currentColor"/>
  </symbol>

<!-- VISA -->
<symbol id="icon-visa" viewBox="0 0 3384.54 2077.85">
  <path fill="#1434CB" d="M1461.26,739.84l-251.37,599.74h-164l-123.7-478.62c-7.51-29.48-14.04-40.28-36.88-52.7  c-37.29-20.23-98.87-39.21-153.05-50.99l3.68-17.43h263.99c33.65,0,63.9,22.4,71.54,61.15l65.33,347.04l161.46-408.2H1461.26z   M2103.84,1143.77c0.66-158.29-218.88-167.01-217.37-237.72c0.47-21.52,20.96-44.4,65.81-50.24c22.23-2.91,83.48-5.13,152.95,26.84  l27.25-127.18c-37.33-13.55-85.36-26.59-145.12-26.59c-153.35,0-261.27,81.52-262.18,198.25c-0.99,86.34,77.03,134.52,135.81,163.21  c60.47,29.38,80.76,48.26,80.53,74.54c-0.43,40.23-48.23,57.99-92.9,58.69c-77.98,1.2-123.23-21.1-159.3-37.87l-28.12,131.39  c36.25,16.63,103.16,31.14,172.53,31.87C1996.72,1348.96,2103.34,1268.45,2103.84,1143.77 M2508.78,1339.58h143.49l-125.25-599.74  h-132.44c-29.78,0-54.9,17.34-66.02,44l-232.81,555.74h162.91L2291,1250h199.05L2508.78,1339.58z M2335.67,1127.08l81.66-225.18  l47,225.18H2335.67z M1682.93,739.84l-128.29,599.74H1399.5l128.34-599.74H1682.93z" />
</symbol>


<!-- MASTERCARD -->
<symbol id="icon-mastercard" viewBox="0 0 152.4 108">
  <rect fill="none" width="152.4" height="108"/>
  <rect x="60.4" y="25.7" width="31.5" height="56.6" fill="#FF5F00"/>
  <path fill="#EB001B" d="M62.4,54c0-11,5.1-21.5,13.7-28.3c-15.6-12.3-38.3-9.6-50.6,6.1C13.3,47.4,16,70,31.7,82.3 c13.1,10.3,31.4,10.3,44.5,0C67.5,75.5,62.4,65,62.4,54z"/>
  <path fill="#F79E1B" d="M134.4,54c0,19.9-16.1,36-36,36c-8.1,0-15.9-2.7-22.2-7.7c15.6-12.3,18.3-34.9,6-50.6c-1.8-2.2-3.8-4.3-6-6 c15.6-12.3,38.3-9.6,50.5,6.1C131.7,38.1,134.4,45.9,134.4,54z"/>
</symbol>


<!-- PAYPAL -->
<symbol id="icon-paypal" viewBox="0 0 124 33">
  <path fill="#253B80" d="M46.211,6.749h-6.839c-0.468,0-0.866,0.34-0.939,0.802l-2.766,17.537c-0.055,0.346,0.213,0.658,0.564,0.658
	h3.265c0.468,0,0.866-0.34,0.939-0.803l0.746-4.73c0.072-0.463,0.471-0.803,0.938-0.803h2.165c4.505,0,7.105-2.18,7.784-6.5
	c0.306-1.89,0.013-3.375-0.872-4.415C50.224,7.353,48.5,6.749,46.211,6.749z M47,13.154c-0.374,2.454-2.249,2.454-4.062,2.454
	h-1.032l0.724-4.583c0.043-0.277,0.283-0.481,0.563-0.481h0.473c1.235,0,2.4,0,3.002,0.704C47.027,11.668,47.137,12.292,47,13.154z"/>
  <path fill="#253B80" d="M66.654,13.075h-3.275c-0.279,0-0.52,0.204-0.563,0.481l-0.145,0.916l-0.229-0.332
	c-0.709-1.029-2.29-1.373-3.868-1.373c-3.619,0-6.71,2.741-7.312,6.586c-0.313,1.918,0.132,3.752,1.22,5.031
	c0.998,1.176,2.426,1.666,4.125,1.666c2.916,0,4.533-1.875,4.533-1.875l-0.146,0.91c-0.055,0.348,0.213,0.66,0.562,0.66h2.95
	c0.469,0,0.865-0.34,0.939-0.803l1.77-11.209C67.271,13.388,67.004,13.075,66.654,13.075z M62.089,19.449
	c-0.316,1.871-1.801,3.127-3.695,3.127c-0.951,0-1.711-0.305-2.199-0.883c-0.484-0.574-0.668-1.391-0.514-2.301
	c0.295-1.855,1.805-3.152,3.67-3.152c0.93,0,1.686,0.309,2.184,0.892C62.034,17.721,62.232,18.543,62.089,19.449z"/>
  <path fill="#253B80" d="M84.096,13.075h-3.291c-0.314,0-0.609,0.156-0.787,0.417l-4.539,6.686l-1.924-6.425
	c-0.121-0.402-0.492-0.678-0.912-0.678h-3.234c-0.393,0-0.666,0.384-0.541,0.754l3.625,10.638l-3.408,4.811
	c-0.268,0.379,0.002,0.9,0.465,0.9h3.287c0.312,0,0.604-0.152,0.781-0.408L84.564,13.97C84.826,13.592,84.557,13.075,84.096,13.075z"/>
  <path fill="#179BD7" d="M94.992,6.749h-6.84c-0.467,0-0.865,0.34-0.938,0.802l-2.766,17.537c-0.055,0.346,0.213,0.658,0.562,0.658
	h3.51c0.326,0,0.605-0.238,0.656-0.562l0.785-4.971c0.072-0.463,0.471-0.803,0.938-0.803h2.164c4.506,0,7.105-2.18,7.785-6.5
	c0.307-1.89,0.012-3.375-0.873-4.415C99.004,7.353,97.281,6.749,94.992,6.749z M95.781,13.154c-0.373,2.454-2.248,2.454-4.062,2.454
	h-1.031l0.725-4.583c0.043-0.277,0.281-0.481,0.562-0.481h0.473c1.234,0,2.4,0,3.002,0.704
	C95.809,11.668,95.918,12.292,95.781,13.154z"/>
  <path fill="#179BD7" d="M115.434,13.075h-3.273c-0.281,0-0.52,0.204-0.562,0.481l-0.145,0.916l-0.23-0.332
	c-0.709-1.029-2.289-1.373-3.867-1.373c-3.619,0-6.709,2.741-7.311,6.586c-0.312,1.918,0.131,3.752,1.219,5.031
	c1,1.176,2.426,1.666,4.125,1.666c2.916,0,4.533-1.875,4.533-1.875l-0.146,0.91c-0.055,0.348,0.213,0.66,0.564,0.66h2.949
	c0.467,0,0.865-0.34,0.938-0.803l1.771-11.209C116.053,13.388,115.785,13.075,115.434,13.075z M110.869,19.449
	c-0.314,1.871-1.801,3.127-3.695,3.127c-0.949,0-1.711-0.305-2.199-0.883c-0.484-0.574-0.666-1.391-0.514-2.301
	c0.297-1.855,1.805-3.152,3.67-3.152c0.93,0,1.686,0.309,2.184,0.892C110.816,17.721,111.014,18.543,110.869,19.449z"/>
  <path fill="#179BD7" d="M119.295,7.23l-2.807,17.858c-0.055,0.346,0.213,0.658,0.562,0.658h2.822c0.469,0,0.867-0.34,0.939-0.803
	l2.768-17.536c0.055-0.346-0.213-0.659-0.562-0.659h-3.16C119.578,6.749,119.338,6.953,119.295,7.23z"/>
  <path fill="#253B80" d="M7.266,29.154l0.523-3.322l-1.165-0.027H1.061L4.927,1.292C4.939,1.218,4.978,1.149,5.035,1.1
	c0.057-0.049,0.13-0.076,0.206-0.076h9.38c3.114,0,5.263,0.648,6.385,1.927c0.526,0.6,0.861,1.227,1.023,1.917
	c0.17,0.724,0.173,1.589,0.007,2.644l-0.012,0.077v0.676l0.526,0.298c0.443,0.235,0.795,0.504,1.065,0.812
	c0.45,0.513,0.741,1.165,0.864,1.938c0.127,0.795,0.085,1.741-0.123,2.812c-0.24,1.232-0.628,2.305-1.152,3.183
	c-0.482,0.809-1.096,1.48-1.825,2c-0.696,0.494-1.523,0.869-2.458,1.109c-0.906,0.236-1.939,0.355-3.072,0.355h-0.73
	c-0.522,0-1.029,0.188-1.427,0.525c-0.399,0.344-0.663,0.814-0.744,1.328l-0.055,0.299l-0.924,5.855l-0.042,0.215
	c-0.011,0.068-0.03,0.102-0.058,0.125c-0.025,0.021-0.061,0.035-0.096,0.035H7.266z"/>
  <path fill="#179BD7" d="M23.048,7.667c-0.028,0.179-0.06,0.362-0.096,0.55c-1.237,6.351-5.469,8.545-10.874,8.545H9.326
	c-0.661,0-1.218,0.48-1.321,1.132L6.596,26.83l-0.399,2.533c-0.067,0.428,0.263,0.814,0.695,0.814h4.881
	c0.578,0,1.069-0.42,1.16-0.99l0.048-0.248l0.919-5.832l0.059-0.32c0.09-0.572,0.582-0.992,1.16-0.992h0.73
	c4.729,0,8.431-1.92,9.513-7.476c0.452-2.321,0.218-4.259-0.978-5.622C24.022,8.286,23.573,7.945,23.048,7.667z"/>
  <path fill="#222D65" d="M21.754,7.151c-0.189-0.055-0.384-0.105-0.584-0.15c-0.201-0.044-0.407-0.083-0.619-0.117
	c-0.742-0.12-1.555-0.177-2.426-0.177h-7.352c-0.181,0-0.353,0.041-0.507,0.115C9.927,6.985,9.675,7.306,9.614,7.699L8.05,17.605
	l-0.045,0.289c0.103-0.652,0.66-1.132,1.321-1.132h2.752c5.405,0,9.637-2.195,10.874-8.545c0.037-0.188,0.068-0.371,0.096-0.55
	c-0.313-0.166-0.652-0.308-1.017-0.429C21.941,7.208,21.848,7.179,21.754,7.151z"/>
  <path fill="#253B80" d="M9.614,7.699c0.061-0.393,0.313-0.714,0.652-0.876c0.155-0.074,0.326-0.115,0.507-0.115h7.352
	c0.871,0,1.684,0.057,2.426,0.177c0.212,0.034,0.418,0.073,0.619,0.117c0.2,0.045,0.395,0.095,0.584,0.15
	c0.094,0.028,0.187,0.057,0.278,0.086c0.365,0.121,0.704,0.264,1.017,0.429c0.368-2.347-0.003-3.945-1.272-5.392
	C20.378,0.682,17.853,0,14.622,0h-9.38c-0.66,0-1.223,0.48-1.325,1.133L0.01,25.898c-0.077,0.49,0.301,0.932,0.795,0.932h5.791
	l1.454-9.225L9.614,7.699z"/>
</symbol>


<!-- APPLE PAY -->
<symbol id="icon-applepay" viewBox="0 0 165.52107 105.9651">
  <path fill="#FFFFFF" d="M150.69807,3.532h1.67149c0.4528,0.0032,0.90561,0.0081,1.36092,0.0205c0.79201,0.0214,1.71849,0.0643,2.58209,0.2191
    c0.7507,0.1352,1.38029,0.3408,1.9845,0.6484c0.5965,0.3031,1.14301,0.7003,1.62019,1.1768c0.479,0.4797,0.87671,1.0271,1.18381,1.6302
    c0.30589,0.5995,0.51019,1.2261,0.64459,1.9823c0.1544,0.8542,0.1971,1.7832,0.21881,2.5801
    c0.01219,0.4498,0.01819,0.8996,0.0204,1.3601c0.00429,0.5569,0.0042,1.1135,0.0042,1.6715V91.142
    c0,0.558,0.00009,1.1136-0.0043,1.6824c-0.00211,0.4497-0.0081,0.8995-0.0204,1.3501c-0.02161,0.7957-0.0643,1.7242-0.2206,2.5885
    c-0.13251,0.7458-0.3367,1.3725-0.64429,1.975c-0.30621,0.6016-0.70331,1.1484-1.18022,1.6251
    c-0.47989,0.48-1.0246,0.876-1.62819,1.1819c-0.5997,0.3061-1.22821,0.51151-1.97151,0.6453
    c-0.88109,0.157-1.84639,0.2002-2.57339,0.2199c-0.4574,0.0103-0.9126,0.01649-1.37889,0.0187
    c-0.55571,0.0043-1.1134,0.0042-1.6692,0.0042H14.82318c-0.5494,0-1.0999,0-1.6593-0.0043
    c-0.4561-0.00211-0.9112-0.0082-1.3512-0.0182c-0.7436-0.0201-1.7095-0.0632-2.5834-0.2193
    c-0.74969-0.1348-1.3782-0.3402-1.9858-0.6503c-0.59789-0.3032-1.1422-0.6988-1.6223-1.1797
    c-0.4764-0.4756-0.8723-1.0207-1.1784-1.6232c-0.3064-0.6019-0.5114-1.2305-0.64619-1.9852
    c-0.15581-0.8626-0.19861-1.7874-0.22-2.5777c-0.01221-0.4525-0.01731-0.9049-0.02021-1.3547V14.8242
    c0.003-0.4525,0.0081-0.9049,0.02031-1.357c0.02139-0.7911,0.06419-1.7163,0.22129-2.5861
    c0.1336-0.7479,0.3385-1.3765,0.6465-1.9814c0.3037-0.5979,0.7003-1.1437,1.17921-1.6225
    c0.477-0.4772,1.02309-0.8739,1.62479-1.1799c0.6011-0.3061,1.2308-0.5116,1.9805-0.6465c0.8638-0.1552,1.7909-0.198,2.5849-0.2195
    c0.4526-0.0123,0.9052-0.0172,1.3544-0.0203h135.87489z"/>
  <path fill="#003087" d="M45.1862,35.64053c1.41724-1.77266,2.37897-4.15282,2.12532-6.58506
    c-2.07464,0.10316-4.60634,1.36871-6.07207,3.14276c-1.31607,1.5192-2.4809,3.99902-2.17723,6.3293
    C41.39111,38.72954,43.71785,37.36345,45.1862,35.64053z M47.28506,38.98252c-3.38211-0.20146-6.25773,1.91951-7.87286,1.91951
    c-1.61602,0-4.08931-1.81799-6.76438-1.76899c-3.48177,0.05114-6.71245,2.01976-8.4793,5.15079
    c-3.63411,6.2636-0.95904,15.55471,2.57494,20.65606c1.71618,2.5238,3.78447,5.30269,6.50976,5.20287
    c2.57494-0.10104,3.58421-1.66732,6.71416-1.66732c3.12765,0,4.03679,1.66732,6.76252,1.61681
    c2.82665-0.05054,4.59381-2.52506,6.30997-5.05132c1.96878-2.877,2.77473-5.65498,2.82542-5.80748
    c-0.0507-0.05051-5.45058-2.12204-5.50065-8.33358c-0.05098-5.20101,4.23951-7.6749,4.44144-7.82832
    C52.3832,39.4881,48.5975,39.08404,47.28506,38.98252z"/>
  <path fill="#009CDE" d="M76.73385,31.94381c7.35096,0,12.4697,5.06708,12.4697,12.44437c0,7.40363-5.22407,12.49704-12.65403,12.49704
    h-8.13892v12.94318h-5.88037v-37.8846H76.73385z M68.41059,51.9493h6.74732c5.11975,0,8.0336-2.75636,8.0336-7.53479
    c0-4.77792-2.91385-7.50845-8.00727-7.50845h-6.77365V51.9493z"/>
  <path fill="#009CDE" d="M90.73997,61.97864c0-4.8311,3.70182-7.79761,10.26583-8.16526l7.56061-0.44614v-2.12639
    c0-3.07185-2.07423-4.90959-5.53905-4.90959c-3.28251,0-5.33041,1.57492-5.82871,4.04313h-5.35574
    c0.31499-4.98859,4.56777-8.66407,11.3941-8.66407c6.69466,0,10.97377,3.54432,10.97377,9.08388v19.03421h-5.43472v-4.54194
    h-0.13065c-1.60125,3.07185-5.09341,5.01441-8.71623,5.01441C94.52078,70.30088,90.73997,66.94038,90.73997,61.97864z
    M108.56641,59.4846v-2.17905l-6.8,0.41981c-3.38683,0.23649-5.30306,1.73291-5.30306,4.09579
    c0,2.41504,1.99523,3.99046,5.04075,3.99046C105.46823,65.81161,108.56641,63.08108,108.56641,59.4846z"/>
  <path fill="#003087" d="M119.34167,79.9889v-4.5946c0.4193,0.10483,1.36425,0.10483,1.83723,0.10483
    c2.6252,0,4.04313-1.10245,4.90908-3.9378c0-0.05267,0.49931-1.68025,0.49931-1.70658l-9.97616-27.64562h6.14268l6.98432,22.47371
    h0.10432l6.98433-22.47371h5.9857l-10.34483,29.06304c-2.36186,6.69517-5.0924,8.84789-10.81577,8.84789
    C121.17891,80.12006,119.76098,80.06739,119.34167,79.9889z"/>
</symbol>

<symbol id="icon-star" viewBox="0 0 16 15">
  <path d="M7.60846 0L9.72449 5.08754L15.2169 5.52786L11.0323 9.11246L12.3107 14.4721L7.60846 11.6L2.90618 14.4721L4.18466 9.11246L7.15256e-06 5.52786L5.49243 5.08754L7.60846 0Z" fill="#F2C03F"/>
</symbol>

<symbol id="icon-bfw" viewBox="0 0 260 145">
<path d="M67.3 81.7364C67.1091 84.7909 65.9636 87.0818 64.2455 88.8C62.1455 90.7091 58.7091 91.6637 53.9364 91.6637C52.7909 91.6637 51.8364 91.4727 51.2636 91.2818C50.6909 90.9 50.5 90.5182 50.5 89.7546C50.5 89.1818 50.6909 88.4182 51.0727 87.0818L52.0273 83.6455C50.3091 83.6455 48.4 83.8364 46.6818 84.0273L45.9182 86.8909C45.5364 88.2273 45.1545 89.3727 44.7727 89.9455C44.3909 90.5182 43.8182 91.0909 43.2455 91.2818C42.4818 91.4727 41.5273 91.6637 40.1909 91.6637L40 92.8091C41.5273 92.6182 43.8182 92.6182 46.8727 92.6182C48.4 92.6182 50.1182 92.6182 52.4091 92.8091H56.4182C59.2818 92.8091 61.9545 92.4273 64.4364 91.4727C66.9182 90.5182 69.0182 89.1818 70.7364 87.4637C72.2636 85.7455 73.2182 83.4546 73.2182 80.9727C71.1182 81.1637 69.2091 81.3546 67.3 81.7364Z" fill="black"/>
<path d="M52.9818 70.8546H57.5637C62.9091 70.8546 65.5818 73.3364 65.5818 78.3C65.5818 78.8727 65.5818 79.2546 65.3909 79.8273C67.3 79.6364 69.2091 79.4455 71.1182 79.2546C71.1182 76.9636 70.3546 74.8636 69.0182 73.3364C67.4909 71.8091 65.2 70.6636 61.9546 70.0909C65.2 69.1364 67.8728 67.6091 70.1637 65.7C72.4546 63.7909 73.4091 61.3091 73.4091 58.6364C73.4091 56.3455 72.4546 54.6273 70.7364 53.2909C69.0182 51.9546 66.3455 51.3818 62.9091 51.3818H58.9C57.9455 51.3818 56.8 51.3818 55.0818 51.3818C52.2182 51.3818 49.9273 51.3818 48.4 51.1909L48.0182 52.3364C49.3546 52.3364 50.5 52.5273 50.8818 52.9091C51.4546 53.2909 51.6455 53.8636 51.6455 54.4364C51.6455 55.2 51.4546 55.9636 51.2637 57.1091L44.5818 81.9273C46.4909 81.9273 48.4 81.7364 50.1182 81.5455L52.9818 70.8546ZM56.8 56.3455C57.1818 54.8182 57.7546 53.6727 58.5182 53.1C59.2818 52.5273 60.4273 52.3364 61.9546 52.3364C64.0546 52.3364 65.5818 52.9091 66.5364 53.8636C67.4909 55.0091 68.0637 56.5364 68.0637 58.8273C68.0637 60.7364 67.6819 62.6455 66.7273 64.1727C65.7728 65.8909 64.4364 67.2273 62.9091 68.1818C61.1909 69.1364 59.2818 69.7091 57.1818 69.7091H53.1728L56.8 56.3455Z" fill="black"/>
<path d="M91.9273 57.3C92.3091 55.9637 92.6909 54.8182 93.0727 54.2455C93.4546 53.6727 94.0273 53.1 94.6 52.9091C95.1727 52.7182 96.3182 52.5273 97.6546 52.5273L98.0364 51.3818C96.3182 51.5727 94.0273 51.5727 90.9727 51.5727C87.7273 51.5727 85.4364 51.5727 83.7182 51.3818L83.5273 52.5273C84.8637 52.5273 86.0091 52.7182 86.3909 53.1C86.9637 53.2909 87.1546 53.8637 87.1546 54.6273C87.1546 55.2 86.9637 56.1546 86.5818 57.3L81.0455 78.1091C82.7637 77.9182 84.6727 77.7273 86.3909 77.5364L91.9273 57.3Z" fill="black"/>
<path d="M102.809 87.4636C101.855 88.9909 100.709 89.9454 99.3728 90.7091C98.0364 91.4727 96.1273 91.6636 93.8364 91.6636H89.8273C88.491 91.6636 87.3455 91.4727 86.7728 91.2818C86.2 91.0909 86.0091 90.5182 86.0091 89.7545C86.0091 88.9909 86.2 88.2273 86.5819 87.0818L88.6819 79.4454C86.9637 79.6363 85.0546 79.8273 83.3364 80.0182L81.4273 87.0818C81.0455 88.4182 80.6637 89.5636 80.2819 90.1363C79.9 90.7091 79.3273 91.2818 78.7546 91.4727C78.1819 91.6636 77.0364 91.8545 75.7 91.8545L75.1273 92.8091C78.7546 92.6182 84.1 92.6182 91.3546 92.6182C97.2728 92.6182 101.664 92.6182 104.146 92.8091C104.527 90.1363 105.1 87.6545 105.673 85.5545C106.436 83.2636 106.818 81.7363 107.009 80.9727H105.673C104.718 83.8363 103.764 85.9363 102.809 87.4636Z" fill="black"/>
<path d="M129.536 57.8727L130.3 72.1909C132.018 72 133.736 71.8091 135.264 71.6182L134.118 51H133.355L117.127 73.7182C117.509 73.7182 118.082 73.5273 118.464 73.5273L129.536 57.8727Z" fill="black"/>
<path d="M138.127 88.2273L137.173 73.5273C135.455 73.7182 133.736 73.9091 132.209 74.1L132.4 76.7727H119.418L120.182 75.6273C119.8 75.6273 119.227 75.8182 118.846 75.8182L111.018 86.8909C108.918 89.7545 107.2 91.4727 105.482 91.8545L105.291 93C106.436 92.8091 107.964 92.8091 109.491 92.8091C111.782 92.8091 113.882 92.8091 115.791 93L115.982 91.8545C113.309 91.8545 111.782 90.9 111.782 89.3727C111.782 88.2273 112.736 86.3182 114.455 83.8363L118.655 77.9182H132.4L132.973 87.0818C132.973 88.4182 132.973 89.3727 132.591 89.9454C132.209 90.5182 131.827 91.0909 131.064 91.2818C130.3 91.4727 129.345 91.6636 128.2 91.6636L128.009 92.8091C129.536 92.6182 131.636 92.6182 134.691 92.6182C137.173 92.6182 139.273 92.6182 140.8 92.8091L140.991 91.6636C140.227 91.6636 139.655 91.2818 139.273 90.7091C138.891 90.1363 138.318 89.3727 138.127 88.2273Z" fill="black"/>
<path d="M159.891 57.1091C160.273 55.7727 160.655 54.8182 161.036 54.0546C161.418 53.2909 161.991 52.9091 162.564 52.7182C163.136 52.5273 164.091 52.3364 165.236 52.3364C169.436 52.3364 172.491 53.1 174.4 54.8182C176.309 56.5364 177.264 59.0182 177.264 62.2637C177.264 63.2182 177.264 64.1727 177.073 65.1273C178.982 64.7455 180.7 64.5546 182.609 64.1727C182.609 63.9818 182.609 63.7909 182.609 63.6C182.609 59.5909 181.273 56.5364 178.6 54.4364C175.927 52.3364 172.109 51.3818 166.764 51.3818C166 51.3818 164.282 51.3818 161.609 51.5727H156.836C154.546 51.5727 152.636 51.5727 151.491 51.3818V52.3364C152.827 52.3364 153.973 52.5273 154.355 52.9091C154.927 53.2909 155.118 53.6727 155.118 54.4364C155.118 54.8182 154.927 55.7727 154.546 57.1091L151.491 69.3273C153.209 69.1364 155.118 68.7546 156.836 68.5637L159.891 57.1091Z" fill="black"/>
<path d="M179.173 67.0364C178.982 70.8545 178.027 74.4818 176.691 77.9182C174.973 82.1182 172.491 85.5545 169.246 88.0364C166 90.5182 161.991 91.8545 157.409 91.8545C156.073 91.8545 155.309 91.6636 154.736 91.2818C154.164 90.9 153.973 90.5182 153.973 89.7545C153.973 89.1818 154.164 88.4182 154.546 87.0818L158.936 70.4727C157.218 70.6636 155.309 71.0455 153.591 71.2364L149.2 86.8909C148.818 88.2273 148.436 89.3727 148.055 89.9455C147.673 90.5182 147.1 91.0909 146.527 91.2818C145.955 91.4727 145 91.6636 143.664 91.6636L143.473 92.8091C145 92.6182 147.1 92.6182 150.155 92.6182C151.109 92.6182 152.636 92.6182 154.736 92.8091H157.982C162.946 92.8091 167.527 91.4727 171.536 88.9909C175.546 86.5091 178.791 83.0727 181.082 78.8727C183.373 74.8636 184.518 70.6636 184.518 66.0818C182.8 66.4636 180.891 66.8455 179.173 67.0364Z" fill="black"/>
<path d="M189.864 86.8909C189.482 88.2273 189.1 89.3727 188.718 89.9454C188.336 90.5182 187.764 91.0909 187.191 91.2818C186.618 91.4727 185.473 91.6636 184.136 91.6636L183.945 92.8091C187.573 92.6182 192.918 92.6182 200.173 92.6182C206.091 92.6182 210.482 92.6182 212.964 92.8091C213.345 90.1363 213.918 87.6545 214.491 85.5545C214.873 84.0273 215.255 82.6909 215.636 81.5454H214.3C213.345 84.2182 212.391 86.1273 211.436 87.6545C210.482 88.9909 209.336 89.9454 208 90.7091C206.664 91.4727 204.755 91.6636 202.464 91.6636H198.455C197.118 91.6636 195.973 91.4727 195.4 91.2818C194.827 91.0909 194.636 90.5182 194.636 89.7545C194.636 88.9909 194.827 88.2273 195.209 87.0818L198.836 73.7182H202.464C203.8 73.7182 204.946 74.1 205.518 74.6727C206.091 75.2454 206.473 76.2 206.473 77.3454C206.473 77.7273 206.473 78.3 206.282 78.8727C206.282 79.4454 206.091 79.8273 206.091 80.0182L205.9 81.1636H207.236C208 77.9182 208.573 75.2454 208.955 73.1454L209.336 71.8091C209.909 69.9 210.482 67.6091 211.246 65.1273H209.909C209.718 65.5091 209.527 65.8909 209.527 66.2727C208.955 67.6091 208.573 68.5636 208 69.3273C207.427 70.0909 206.855 70.8545 205.9 71.4273C204.945 72 203.991 72.3818 202.655 72.3818H199.027L201.509 63.0273C199.6 63.4091 197.882 63.7909 195.973 64.1727L189.864 86.8909Z" fill="black"/>
<path d="M219.836 51.3818C217.545 51.5727 213.918 51.5727 208.764 51.5727C201.509 51.5727 196.164 51.5727 192.536 51.3818L192.345 52.5273C193.682 52.5273 194.827 52.7182 195.209 53.1C195.782 53.2909 195.973 53.8637 195.973 54.6273C195.973 55.2 195.782 56.1546 195.4 57.3L194.064 62.0727C195.973 61.6909 197.691 61.3091 199.6 60.9273L200.555 57.1091C200.936 55.7727 201.318 54.6273 201.7 54.0546C202.082 53.4818 202.655 52.9091 203.227 52.7182C203.991 52.7182 204.945 52.5273 206.473 52.5273H210.482C212.582 52.5273 214.109 52.9091 214.873 53.4818C215.636 54.0546 216.018 55.2 216.018 56.9182C216.018 57.1091 216.018 57.3 216.018 57.6818C216.591 57.4909 217.164 57.4909 217.736 57.3C218.309 55.5818 219.073 53.6727 219.836 51.3818Z" fill="black"/>
<path d="M216.018 57.4909C216.018 58.4455 215.827 59.5909 215.636 61.3091H216.973C217.164 60.3546 217.355 59.2091 217.736 57.8727C217.736 57.6818 217.927 57.3 217.927 57.1091C217.355 57.3 216.782 57.4909 216.018 57.4909Z" fill="black"/>
</symbol>

<symbol id="icon-flag-ru" viewBox="0 0 35 26">
  <g filter="url(#filter0_d_0_428)">
<path d="M30.9999 7.99989H4V2.47369C4 2.21211 4.20846 2 4.46554 2H30.5345C30.7915 2 31 2.21211 31 2.47369L30.9999 7.99989Z" fill="#F5F5F5"/>
<path d="M30.5344 20H4.46554C4.20846 20 4 19.7879 4 19.5263V14.0002H30.9999V19.5263C30.9999 19.788 30.7915 20 30.5344 20Z" fill="#FF4B55"/>
<path d="M30.9999 7.99939H4V13.9989H30.9999V7.99939Z" fill="#41479B"/>
</g>
<defs>
<filter id="filter0_d_0_428" x="0" y="0" width="35" height="26" filterUnits="userSpaceOnUse" color-interpolation-filters="sRGB">
<feFlood flood-opacity="0" result="BackgroundImageFix"/>
<feColorMatrix in="SourceAlpha" type="matrix" values="0 0 0 0 0 0 0 0 0 0 0 0 0 0 0 0 0 0 127 0" result="hardAlpha"/>
<feOffset dy="2"/>
<feGaussianBlur stdDeviation="2"/>
<feColorMatrix type="matrix" values="0 0 0 0 0.00655022 0 0 0 0 0.00655022 0 0 0 0 0.00655022 0 0 0 0.24 0"/>
<feBlend mode="normal" in2="BackgroundImageFix" result="effect1_dropShadow_0_428"/>
<feBlend mode="normal" in="SourceGraphic" in2="effect1_dropShadow_0_428" result="shape"/>
</filter>
</defs>
</symbol>

<symbol id="icon-flag-us" viewBox="0 0 35 26">
  <g filter="url(#filter0_d_0_372)">
<path d="M30.5344 19.9996H4.46554C4.20846 19.9996 4 19.7875 4 19.5259V2.4737C4 2.21211 4.20846 2 4.46554 2H30.5345C30.7915 2 31 2.21211 31 2.4737V19.5259C30.9999 19.7876 30.7915 19.9996 30.5344 19.9996Z" fill="#F5F5F5"/>
<path d="M30.9999 3.38465H4V2.4737C4 2.21211 4.20846 2 4.46554 2H30.5345C30.7915 2 31 2.21211 31 2.4737L30.9999 3.38465Z" fill="#FF4B55"/>
<path d="M30.9999 7.53839H4V8.92299H30.9999V7.53839Z" fill="#FF4B55"/>
<path d="M30.9999 4.76923H4V6.15382H30.9999V4.76923Z" fill="#FF4B55"/>
<path d="M30.9999 11.6922H4.46554C4.20846 11.6922 4 11.4801 4 11.2185V10.3076H30.9999V11.6922Z" fill="#FF4B55"/>
<path d="M30.9999 15.8472H4V17.2318H30.9999V15.8472Z" fill="#FF4B55"/>
<path d="M30.5344 19.9997H4.46554C4.20846 19.9997 4 19.7875 4 19.526V18.6151H30.9999V19.526C30.9999 19.7876 30.7915 19.9997 30.5344 19.9997Z" fill="#FF4B55"/>
<path d="M30.9999 13.0767H4V14.4613H30.9999V13.0767Z" fill="#FF4B55"/>
<path d="M16.1034 2.00201H4.46554C4.20846 2.00201 4 2.21407 4 2.47566V11.2203C4 11.4819 4.20846 11.694 4.46554 11.694H16.1035C16.3605 11.694 16.569 11.4819 16.569 11.2203V2.47566C16.569 2.21407 16.3605 2.00201 16.1034 2.00201Z" fill="#41479B"/>
<path d="M5.30752 3.08663L5.41056 3.40107L5.7363 3.40359C5.77849 3.40396 5.79594 3.4587 5.76204 3.48418L5.5 3.68111L5.5983 3.9971C5.61106 4.03799 5.56523 4.0719 5.5309 4.0469L5.26591 3.85421L5.00092 4.04695C4.96659 4.0719 4.92087 4.03805 4.93353 3.99716L5.03182 3.68116L4.76979 3.48424C4.73588 3.4587 4.75333 3.40402 4.79552 3.40364L5.12126 3.40112L5.2243 3.08668C5.23759 3.0459 5.29412 3.0459 5.30752 3.08663Z" fill="#F5F5F5"/>
<path d="M5.30709 4.73179L5.41013 5.04623L5.73587 5.04875C5.77806 5.04913 5.79552 5.10386 5.76161 5.12935L5.49957 5.32627L5.59787 5.64227C5.61063 5.68315 5.5648 5.71707 5.53047 5.69206L5.26548 5.49937L5.0005 5.69211C4.96617 5.71707 4.92044 5.68321 4.9331 5.64232L5.0314 5.32633L4.76936 5.1294C4.73545 5.10386 4.75291 5.04918 4.7951 5.04881L5.12083 5.04628L5.22388 4.73185C5.23717 4.69112 5.2937 4.69112 5.30709 4.73179Z" fill="#F5F5F5"/>
<path d="M5.30709 6.37596L5.41013 6.69039L5.73587 6.69292C5.77806 6.69329 5.79552 6.74802 5.76161 6.77351L5.49957 6.97044L5.59787 7.28643C5.61063 7.32732 5.5648 7.36123 5.53047 7.33623L5.26548 7.14354L5.0005 7.33628C4.96617 7.36123 4.92044 7.32737 4.9331 7.28648L5.0314 6.97049L4.76936 6.77356C4.73545 6.74802 4.75291 6.69335 4.7951 6.69297L5.12083 6.69045L5.22388 6.37601C5.23717 6.33528 5.2937 6.33528 5.30709 6.37596Z" fill="#F5F5F5"/>
<path d="M5.30709 8.02157L5.41013 8.336L5.73587 8.33853C5.77806 8.3389 5.79552 8.39363 5.76161 8.41912L5.49957 8.61605L5.59787 8.93204C5.61063 8.97293 5.5648 9.00684 5.53047 8.98184L5.26548 8.78915L5.0005 8.98189C4.96617 9.00684 4.92044 8.97298 4.9331 8.93209L5.0314 8.6161L4.76936 8.41917C4.73545 8.39363 4.75291 8.33895 4.7951 8.33858L5.12083 8.33606L5.22388 8.02162C5.23717 7.98084 5.2937 7.98084 5.30709 8.02157Z" fill="#F5F5F5"/>
<path d="M5.30709 9.66583L5.41013 9.98027L5.73587 9.98279C5.77806 9.98317 5.79552 10.0379 5.76161 10.0634L5.49957 10.2603L5.59787 10.5763C5.61063 10.6172 5.5648 10.6511 5.53047 10.6261L5.26548 10.4334L5.0005 10.6262C4.96617 10.6511 4.92044 10.6172 4.9331 10.5764L5.0314 10.2604L4.76936 10.0634C4.73545 10.0379 4.75291 9.98322 4.7951 9.98285L5.12083 9.98032L5.22388 9.66589C5.23717 9.62505 5.2937 9.62505 5.30709 9.66583Z" fill="#F5F5F5"/>
<path d="M6.56185 3.89342L6.6649 4.20786L6.99064 4.21038C7.03282 4.21075 7.05028 4.26549 7.01637 4.29097L6.75433 4.4879L6.85263 4.80389C6.86539 4.84478 6.81957 4.87869 6.78524 4.85369L6.52025 4.66095L6.25526 4.85369C6.22093 4.87864 6.17521 4.84478 6.18786 4.80389L6.28616 4.4879L6.02412 4.29097C5.99021 4.26543 6.00767 4.21075 6.04986 4.21038L6.3756 4.20786L6.47864 3.89342C6.49187 3.85275 6.54851 3.85275 6.56185 3.89342Z" fill="#F5F5F5"/>
<path d="M6.56185 5.53903L6.6649 5.85347L6.99064 5.85599C7.03282 5.85636 7.05028 5.9111 7.01637 5.93658L6.75433 6.13351L6.85263 6.4495C6.86539 6.49039 6.81957 6.5243 6.78524 6.4993L6.52025 6.30656L6.25526 6.4993C6.22093 6.52425 6.17521 6.49044 6.18786 6.4495L6.28616 6.13351L6.02412 5.93658C5.99021 5.91104 6.00767 5.85636 6.04986 5.85599L6.3756 5.85347L6.47864 5.53903C6.49187 5.4983 6.54851 5.4983 6.56185 5.53903Z" fill="#F5F5F5"/>
<path d="M6.56185 7.18326L6.6649 7.49769L6.99064 7.50021C7.03282 7.50059 7.05028 7.55532 7.01637 7.58081L6.75433 7.77774L6.85263 8.09373C6.86539 8.13462 6.81957 8.16853 6.78524 8.14352L6.52025 7.95078L6.25526 8.14352C6.22093 8.16848 6.17521 8.13462 6.18786 8.09373L6.28616 7.77774L6.02412 7.58081C5.99021 7.55527 6.00767 7.50059 6.04986 7.50021L6.3756 7.49769L6.47864 7.18326C6.49187 7.14253 6.54851 7.14253 6.56185 7.18326Z" fill="#F5F5F5"/>
<path d="M6.56185 8.82872L6.6649 9.14316L6.99064 9.14568C7.03282 9.14606 7.05028 9.20079 7.01637 9.22628L6.75433 9.4232L6.85263 9.7392C6.86539 9.78008 6.81957 9.814 6.78524 9.78899L6.52025 9.59625L6.25526 9.78899C6.22093 9.81394 6.17521 9.78008 6.18786 9.7392L6.28616 9.4232L6.02412 9.22628C5.99021 9.20074 6.00767 9.14606 6.04986 9.14568L6.3756 9.14316L6.47864 8.82872C6.49187 8.78805 6.54851 8.78805 6.56185 8.82872Z" fill="#F5F5F5"/>
<path d="M7.81661 3.08627L7.91966 3.40071L8.2454 3.40323C8.28758 3.40361 8.30504 3.45834 8.27113 3.48382L8.00909 3.68075L8.10739 3.99674C8.12015 4.03763 8.07433 4.07154 8.04 4.04654L7.77501 3.8538L7.51002 4.04654C7.47569 4.07149 7.42997 4.03763 7.44262 3.99674L7.54092 3.68075L7.27888 3.48382C7.24497 3.45828 7.26243 3.40361 7.30462 3.40323L7.63036 3.40071L7.7334 3.08627C7.74669 3.04554 7.80327 3.04554 7.81661 3.08627Z" fill="#F5F5F5"/>
<path d="M7.81661 4.7318L7.91966 5.04624L8.2454 5.04876C8.28758 5.04913 8.30504 5.10387 8.27113 5.12935L8.00909 5.32628L8.10739 5.64227C8.12015 5.68316 8.07433 5.71707 8.04 5.69207L7.77501 5.49933L7.51002 5.69207C7.47569 5.71702 7.42997 5.68316 7.44262 5.64227L7.54092 5.32628L7.27888 5.12935C7.24497 5.10381 7.26243 5.04913 7.30462 5.04876L7.63036 5.04624L7.7334 4.7318C7.74669 4.69113 7.80327 4.69113 7.81661 4.7318Z" fill="#F5F5F5"/>
<path d="M7.81661 6.37596L7.91966 6.6904L8.2454 6.69292C8.28758 6.6933 8.30504 6.74803 8.27113 6.77352L8.00909 6.97044L8.10739 7.28644C8.12015 7.32733 8.07433 7.36124 8.04 7.33623L7.77501 7.14349L7.51002 7.33623C7.47569 7.36118 7.42997 7.32733 7.44262 7.28644L7.54092 6.97044L7.27888 6.77352C7.24497 6.74798 7.26243 6.6933 7.30462 6.69292L7.63036 6.6904L7.7334 6.37596C7.74669 6.33529 7.80327 6.33529 7.81661 6.37596Z" fill="#F5F5F5"/>
<path d="M7.81661 8.02157L7.91966 8.33601L8.2454 8.33853C8.28758 8.33891 8.30504 8.39364 8.27113 8.41913L8.00909 8.61605L8.10739 8.93205C8.12015 8.97293 8.07433 9.00685 8.04 8.98184L7.77501 8.7891L7.51002 8.98184C7.47569 9.00679 7.42997 8.97293 7.44262 8.93205L7.54092 8.61605L7.27888 8.41913C7.24497 8.39359 7.26243 8.33891 7.30462 8.33853L7.63036 8.33601L7.7334 8.02157C7.74669 7.98085 7.80327 7.98085 7.81661 8.02157Z" fill="#F5F5F5"/>
<path d="M7.81661 9.66584L7.91966 9.98028L8.2454 9.9828C8.28758 9.98317 8.30504 10.0379 8.27113 10.0634L8.00909 10.2603L8.10739 10.5763C8.12015 10.6172 8.07433 10.6511 8.04 10.6261L7.77501 10.4334L7.51002 10.6261C7.47569 10.6511 7.42997 10.6172 7.44262 10.5763L7.54092 10.2603L7.27888 10.0634C7.24497 10.0379 7.26243 9.98317 7.30462 9.9828L7.63036 9.98028L7.7334 9.66584C7.74669 9.62506 7.80327 9.62506 7.81661 9.66584Z" fill="#F5F5F5"/>
<path d="M9.07125 3.89342L9.1743 4.20786L9.50003 4.21038C9.54222 4.21075 9.55968 4.26549 9.52577 4.29097L9.26373 4.4879L9.36203 4.80389C9.37479 4.84478 9.32896 4.87869 9.29463 4.85369L9.02964 4.66095L8.76466 4.85369C8.73033 4.87864 8.6846 4.84478 8.69726 4.80389L8.79556 4.4879L8.53352 4.29097C8.49961 4.26543 8.51707 4.21075 8.55926 4.21038L8.88499 4.20786L8.98804 3.89342C9.00127 3.85275 9.05791 3.85275 9.07125 3.89342Z" fill="#F5F5F5"/>
<path d="M9.07125 5.53903L9.1743 5.85347L9.50003 5.85599C9.54222 5.85636 9.55968 5.9111 9.52577 5.93658L9.26373 6.13351L9.36203 6.4495C9.37479 6.49039 9.32896 6.5243 9.29463 6.4993L9.02964 6.30656L8.76466 6.4993C8.73033 6.52425 8.6846 6.49044 8.69726 6.4495L8.79556 6.13351L8.53352 5.93658C8.49961 5.91104 8.51707 5.85636 8.55926 5.85599L8.88499 5.85347L8.98804 5.53903C9.00127 5.4983 9.05791 5.4983 9.07125 5.53903Z" fill="#F5F5F5"/>
<path d="M9.07125 7.18326L9.1743 7.49769L9.50003 7.50021C9.54222 7.50059 9.55968 7.55532 9.52577 7.58081L9.26373 7.77774L9.36203 8.09373C9.37479 8.13462 9.32896 8.16853 9.29463 8.14352L9.02964 7.95078L8.76466 8.14352C8.73033 8.16848 8.6846 8.13462 8.69726 8.09373L8.79556 7.77774L8.53352 7.58081C8.49961 7.55527 8.51707 7.50059 8.55926 7.50021L8.88499 7.49769L8.98804 7.18326C9.00127 7.14253 9.05791 7.14253 9.07125 7.18326Z" fill="#F5F5F5"/>
<path d="M9.07125 8.82872L9.1743 9.14316L9.50003 9.14568C9.54222 9.14606 9.55968 9.20079 9.52577 9.22628L9.26373 9.4232L9.36203 9.7392C9.37479 9.78008 9.32896 9.814 9.29463 9.78899L9.02964 9.59625L8.76466 9.78899C8.73033 9.81394 8.6846 9.78008 8.69726 9.7392L8.79556 9.4232L8.53352 9.22628C8.49961 9.20074 8.51707 9.14606 8.55926 9.14568L8.88499 9.14316L8.98804 8.82872C9.00127 8.78805 9.05791 8.78805 9.07125 8.82872Z" fill="#F5F5F5"/>
<path d="M10.3262 3.08627L10.4292 3.40071L10.755 3.40323C10.7972 3.40361 10.8146 3.45834 10.7807 3.48382L10.5187 3.68075L10.617 3.99674C10.6297 4.03763 10.5839 4.07154 10.5496 4.04654L10.2845 3.8538L10.0195 4.04654C9.98521 4.07149 9.93949 4.03763 9.95214 3.99674L10.0504 3.68075L9.7884 3.48382C9.7545 3.45828 9.77195 3.40361 9.81414 3.40323L10.1399 3.40071L10.2429 3.08627C10.2563 3.04554 10.3128 3.04554 10.3262 3.08627Z" fill="#F5F5F5"/>
<path d="M10.3262 4.7318L10.4292 5.04624L10.755 5.04876C10.7972 5.04913 10.8146 5.10387 10.7807 5.12935L10.5187 5.32628L10.617 5.64227C10.6297 5.68316 10.5839 5.71707 10.5496 5.69207L10.2845 5.49933L10.0195 5.69207C9.98521 5.71702 9.93949 5.68316 9.95214 5.64227L10.0504 5.32628L9.7884 5.12935C9.7545 5.10381 9.77195 5.04913 9.81414 5.04876L10.1399 5.04624L10.2429 4.7318C10.2563 4.69113 10.3128 4.69113 10.3262 4.7318Z" fill="#F5F5F5"/>
<path d="M10.3262 6.37596L10.4292 6.6904L10.755 6.69292C10.7972 6.6933 10.8146 6.74803 10.7807 6.77352L10.5187 6.97044L10.617 7.28644C10.6297 7.32733 10.5839 7.36124 10.5496 7.33623L10.2845 7.14349L10.0195 7.33623C9.98521 7.36118 9.93949 7.32733 9.95214 7.28644L10.0504 6.97044L9.7884 6.77352C9.7545 6.74798 9.77195 6.6933 9.81414 6.69292L10.1399 6.6904L10.2429 6.37596C10.2563 6.33529 10.3128 6.33529 10.3262 6.37596Z" fill="#F5F5F5"/>
<path d="M10.3262 8.02157L10.4292 8.33601L10.755 8.33853C10.7972 8.33891 10.8146 8.39364 10.7807 8.41913L10.5187 8.61605L10.617 8.93205C10.6297 8.97293 10.5839 9.00685 10.5496 8.98184L10.2845 8.7891L10.0195 8.98184C9.98521 9.00679 9.93949 8.97293 9.95214 8.93205L10.0504 8.61605L9.7884 8.41913C9.7545 8.39359 9.77195 8.33891 9.81414 8.33853L10.1399 8.33601L10.2429 8.02157C10.2563 7.98085 10.3128 7.98085 10.3262 8.02157Z" fill="#F5F5F5"/>
<path d="M10.3262 9.66584L10.4292 9.98028L10.755 9.9828C10.7972 9.98317 10.8146 10.0379 10.7807 10.0634L10.5187 10.2603L10.617 10.5763C10.6297 10.6172 10.5839 10.6511 10.5496 10.6261L10.2845 10.4334L10.0195 10.6261C9.98521 10.6511 9.93949 10.6172 9.95214 10.5763L10.0504 10.2603L9.7884 10.0634C9.7545 10.0379 9.77195 9.98317 9.81414 9.9828L10.1399 9.98028L10.2429 9.66584C10.2563 9.62506 10.3128 9.62506 10.3262 9.66584Z" fill="#F5F5F5"/>
<path d="M11.5808 3.89342L11.6838 4.20786L12.0096 4.21038C12.0517 4.21075 12.0692 4.26549 12.0353 4.29097L11.7733 4.4879L11.8716 4.80389C11.8843 4.84478 11.8385 4.87869 11.8042 4.85369L11.5392 4.66095L11.2742 4.85369C11.2398 4.87864 11.1941 4.84478 11.2068 4.80389L11.3051 4.4879L11.043 4.29097C11.0091 4.26543 11.0266 4.21075 11.0688 4.21038L11.3945 4.20786L11.4976 3.89342C11.5109 3.85275 11.5674 3.85275 11.5808 3.89342Z" fill="#F5F5F5"/>
<path d="M11.5808 5.53903L11.6838 5.85347L12.0096 5.85599C12.0517 5.85636 12.0692 5.9111 12.0353 5.93658L11.7733 6.13351L11.8716 6.4495C11.8843 6.49039 11.8385 6.5243 11.8042 6.4993L11.5392 6.30656L11.2742 6.4993C11.2398 6.52425 11.1941 6.49044 11.2068 6.4495L11.3051 6.13351L11.043 5.93658C11.0091 5.91104 11.0266 5.85636 11.0688 5.85599L11.3945 5.85347L11.4976 5.53903C11.5109 5.4983 11.5674 5.4983 11.5808 5.53903Z" fill="#F5F5F5"/>
<path d="M11.5808 7.18326L11.6838 7.49769L12.0096 7.50021C12.0517 7.50059 12.0692 7.55532 12.0353 7.58081L11.7733 7.77774L11.8716 8.09373C11.8843 8.13462 11.8385 8.16853 11.8042 8.14352L11.5392 7.95078L11.2742 8.14352C11.2398 8.16848 11.1941 8.13462 11.2068 8.09373L11.3051 7.77774L11.043 7.58081C11.0091 7.55527 11.0266 7.50059 11.0688 7.50021L11.3945 7.49769L11.4976 7.18326C11.5109 7.14253 11.5674 7.14253 11.5808 7.18326Z" fill="#F5F5F5"/>
<path d="M11.5808 8.82872L11.6838 9.14316L12.0096 9.14568C12.0517 9.14606 12.0692 9.20079 12.0353 9.22628L11.7733 9.4232L11.8716 9.7392C11.8843 9.78008 11.8385 9.814 11.8042 9.78899L11.5392 9.59625L11.2742 9.78899C11.2398 9.81394 11.1941 9.78008 11.2068 9.7392L11.3051 9.4232L11.043 9.22628C11.0091 9.20074 11.0266 9.14606 11.0688 9.14568L11.3945 9.14316L11.4976 8.82872C11.5109 8.78805 11.5674 8.78805 11.5808 8.82872Z" fill="#F5F5F5"/>
<path d="M12.8352 3.08627L12.9382 3.40071L13.264 3.40323C13.3061 3.40361 13.3236 3.45834 13.2897 3.48382L13.0276 3.68075L13.1259 3.99674C13.1387 4.03763 13.0929 4.07154 13.0586 4.04654L12.7936 3.8538L12.5286 4.04654C12.4942 4.07149 12.4485 4.03763 12.4612 3.99674L12.5595 3.68075L12.2974 3.48382C12.2635 3.45828 12.281 3.40361 12.3232 3.40323L12.6489 3.40071L12.752 3.08627C12.7652 3.04554 12.8218 3.04554 12.8352 3.08627Z" fill="#F5F5F5"/>
<path d="M12.8352 4.7318L12.9382 5.04624L13.264 5.04876C13.3061 5.04913 13.3236 5.10387 13.2897 5.12935L13.0276 5.32628L13.1259 5.64227C13.1387 5.68316 13.0929 5.71707 13.0586 5.69207L12.7936 5.49933L12.5286 5.69207C12.4942 5.71702 12.4485 5.68316 12.4612 5.64227L12.5595 5.32628L12.2974 5.12935C12.2635 5.10381 12.281 5.04913 12.3232 5.04876L12.6489 5.04624L12.752 4.7318C12.7652 4.69113 12.8218 4.69113 12.8352 4.7318Z" fill="#F5F5F5"/>
<path d="M12.8352 6.37596L12.9382 6.6904L13.264 6.69292C13.3061 6.6933 13.3236 6.74803 13.2897 6.77352L13.0276 6.97044L13.1259 7.28644C13.1387 7.32733 13.0929 7.36124 13.0586 7.33623L12.7936 7.14349L12.5286 7.33623C12.4942 7.36118 12.4485 7.32733 12.4612 7.28644L12.5595 6.97044L12.2974 6.77352C12.2635 6.74798 12.281 6.6933 12.3232 6.69292L12.6489 6.6904L12.752 6.37596C12.7652 6.33529 12.8218 6.33529 12.8352 6.37596Z" fill="#F5F5F5"/>
<path d="M12.8352 8.02157L12.9382 8.33601L13.264 8.33853C13.3061 8.33891 13.3236 8.39364 13.2897 8.41913L13.0276 8.61605L13.1259 8.93205C13.1387 8.97293 13.0929 9.00685 13.0586 8.98184L12.7936 8.7891L12.5286 8.98184C12.4942 9.00679 12.4485 8.97293 12.4612 8.93205L12.5595 8.61605L12.2974 8.41913C12.2635 8.39359 12.281 8.33891 12.3232 8.33853L12.6489 8.33601L12.752 8.02157C12.7652 7.98085 12.8218 7.98085 12.8352 8.02157Z" fill="#F5F5F5"/>
<path d="M12.8352 9.66584L12.9382 9.98028L13.264 9.9828C13.3061 9.98317 13.3236 10.0379 13.2897 10.0634L13.0276 10.2603L13.1259 10.5763C13.1387 10.6172 13.0929 10.6511 13.0586 10.6261L12.7936 10.4334L12.5286 10.6261C12.4942 10.6511 12.4485 10.6172 12.4612 10.5763L12.5595 10.2603L12.2974 10.0634C12.2635 10.0379 12.281 9.98317 12.3232 9.9828L12.6489 9.98028L12.752 9.66584C12.7652 9.62506 12.8218 9.62506 12.8352 9.66584Z" fill="#F5F5F5"/>
<path d="M14.0901 3.89342L14.1931 4.20786L14.5188 4.21038C14.561 4.21075 14.5785 4.26549 14.5446 4.29097L14.2825 4.4879L14.3808 4.80389C14.3936 4.84478 14.3478 4.87869 14.3134 4.85369L14.0484 4.66095L13.7835 4.85369C13.7491 4.87864 13.7034 4.84478 13.7161 4.80389L13.8144 4.4879L13.5523 4.29097C13.5184 4.26543 13.5359 4.21075 13.5781 4.21038L13.9038 4.20786L14.0068 3.89342C14.0201 3.85275 14.0768 3.85275 14.0901 3.89342Z" fill="#F5F5F5"/>
<path d="M14.0901 5.53903L14.1931 5.85347L14.5188 5.85599C14.561 5.85636 14.5785 5.9111 14.5446 5.93658L14.2825 6.13351L14.3808 6.4495C14.3936 6.49039 14.3478 6.5243 14.3134 6.4993L14.0484 6.30656L13.7835 6.4993C13.7491 6.52425 13.7034 6.49044 13.7161 6.4495L13.8144 6.13351L13.5523 5.93658C13.5184 5.91104 13.5359 5.85636 13.5781 5.85599L13.9038 5.85347L14.0068 5.53903C14.0201 5.4983 14.0768 5.4983 14.0901 5.53903Z" fill="#F5F5F5"/>
<path d="M14.0901 7.18326L14.1931 7.49769L14.5188 7.50021C14.561 7.50059 14.5785 7.55532 14.5446 7.58081L14.2825 7.77774L14.3808 8.09373C14.3936 8.13462 14.3478 8.16853 14.3134 8.14352L14.0484 7.95078L13.7835 8.14352C13.7491 8.16848 13.7034 8.13462 13.7161 8.09373L13.8144 7.77774L13.5523 7.58081C13.5184 7.55527 13.5359 7.50059 13.5781 7.50021L13.9038 7.49769L14.0068 7.18326C14.0201 7.14253 14.0768 7.14253 14.0901 7.18326Z" fill="#F5F5F5"/>
<path d="M14.0901 8.82872L14.1931 9.14316L14.5188 9.14568C14.561 9.14606 14.5785 9.20079 14.5446 9.22628L14.2825 9.4232L14.3808 9.7392C14.3936 9.78008 14.3478 9.814 14.3134 9.78899L14.0484 9.59625L13.7835 9.78899C13.7491 9.81394 13.7034 9.78008 13.7161 9.7392L13.8144 9.4232L13.5523 9.22628C13.5184 9.20074 13.5359 9.14606 13.5781 9.14568L13.9038 9.14316L14.0068 8.82872C14.0201 8.78805 14.0768 8.78805 14.0901 8.82872Z" fill="#F5F5F5"/>
<path d="M15.3451 3.08627L15.4481 3.40071L15.7738 3.40323C15.816 3.40361 15.8335 3.45834 15.7996 3.48382L15.5375 3.68075L15.6358 3.99674C15.6486 4.03763 15.6028 4.07154 15.5684 4.04654L15.3034 3.8538L15.0385 4.04654C15.0041 4.07149 14.9584 4.03763 14.9711 3.99674L15.0694 3.68075L14.8073 3.48382C14.7734 3.45828 14.7909 3.40361 14.8331 3.40323L15.1588 3.40071L15.2618 3.08627C15.2751 3.04554 15.3317 3.04554 15.3451 3.08627Z" fill="#F5F5F5"/>
<path d="M15.3451 4.7318L15.4481 5.04624L15.7738 5.04876C15.816 5.04913 15.8335 5.10387 15.7996 5.12935L15.5375 5.32628L15.6358 5.64227C15.6486 5.68316 15.6028 5.71707 15.5684 5.69207L15.3034 5.49933L15.0385 5.69207C15.0041 5.71702 14.9584 5.68316 14.9711 5.64227L15.0694 5.32628L14.8073 5.12935C14.7734 5.10381 14.7909 5.04913 14.8331 5.04876L15.1588 5.04624L15.2618 4.7318C15.2751 4.69113 15.3317 4.69113 15.3451 4.7318Z" fill="#F5F5F5"/>
<path d="M15.3451 6.37596L15.4481 6.6904L15.7738 6.69292C15.816 6.6933 15.8335 6.74803 15.7996 6.77352L15.5375 6.97044L15.6358 7.28644C15.6486 7.32733 15.6028 7.36124 15.5684 7.33623L15.3034 7.14349L15.0385 7.33623C15.0041 7.36118 14.9584 7.32733 14.9711 7.28644L15.0694 6.97044L14.8073 6.77352C14.7734 6.74798 14.7909 6.6933 14.8331 6.69292L15.1588 6.6904L15.2618 6.37596C15.2751 6.33529 15.3317 6.33529 15.3451 6.37596Z" fill="#F5F5F5"/>
<path d="M15.3451 8.02157L15.4481 8.33601L15.7738 8.33853C15.816 8.33891 15.8335 8.39364 15.7996 8.41913L15.5375 8.61605L15.6358 8.93205C15.6486 8.97293 15.6028 9.00685 15.5684 8.98184L15.3034 8.7891L15.0385 8.98184C15.0041 9.00679 14.9584 8.97293 14.9711 8.93205L15.0694 8.61605L14.8073 8.41913C14.7734 8.39359 14.7909 8.33891 14.8331 8.33853L15.1588 8.33601L15.2618 8.02157C15.2751 7.98085 15.3317 7.98085 15.3451 8.02157Z" fill="#F5F5F5"/>
<path d="M15.3451 9.66584L15.4481 9.98028L15.7738 9.9828C15.816 9.98317 15.8335 10.0379 15.7996 10.0634L15.5375 10.2603L15.6358 10.5763C15.6486 10.6172 15.6028 10.6511 15.5684 10.6261L15.3034 10.4334L15.0385 10.6261C15.0041 10.6511 14.9584 10.6172 14.9711 10.5763L15.0694 10.2603L14.8073 10.0634C14.7734 10.0379 14.7909 9.98317 14.8331 9.9828L15.1588 9.98028L15.2618 9.66584C15.2751 9.62506 15.3317 9.62506 15.3451 9.66584Z" fill="#F5F5F5"/>
</g>
<defs>
<filter id="filter0_d_0_372" x="0" y="0" width="35" height="25.9996" filterUnits="userSpaceOnUse" color-interpolation-filters="sRGB">
<feFlood flood-opacity="0" result="BackgroundImageFix"/>
<feColorMatrix in="SourceAlpha" type="matrix" values="0 0 0 0 0 0 0 0 0 0 0 0 0 0 0 0 0 0 127 0" result="hardAlpha"/>
<feOffset dy="2"/>
<feGaussianBlur stdDeviation="2"/>
<feColorMatrix type="matrix" values="0 0 0 0 0.00655022 0 0 0 0 0.00655022 0 0 0 0 0.00655022 0 0 0 0.24 0"/>
<feBlend mode="normal" in2="BackgroundImageFix" result="effect1_dropShadow_0_372"/>
<feBlend mode="normal" in="SourceGraphic" in2="effect1_dropShadow_0_372" result="shape"/>
</filter>
</defs>
</symbol>

<symbol id="arrow-left" viewBox="0 0 35 66"> 
<path d="M33.4142 0.707153L1.41418 32.7072L33.4142 64.7072" 
stroke="currentColor" stroke-width="2" /> 
</symbol> 
<symbol id="arrow-right" viewBox="0 0 35 66">
<path d="M0.707154 64.7072L32.7072 32.7072L0.70716 0.707152"
stroke="currentColor" stroke-width="2"/> 
</symbol>
</svg>


